<?xml version="1.0" encoding="utf-8"?>
<!DOCTYPE svg PUBLIC "-//W3C//DTD SVG 1.1//EN" "http://www.w3.org/Graphics/SVG/1.1/DTD/svg11.dtd">
<!-- exported from Silhouette Studio Business Edition V4.1.206ssbe -->
<svg version="1.1" xmlns="http://www.w3.org/2000/svg" xmlns:xlink="http://www.w3.org/1999/xlink" width="304.8mm" height="304.8mm" viewBox="0 0 304.8 304.8">
<defs/>
<path d="M 129.4892 243.7043 C 130.0802 243.1762 130.652 242.5715 130.76 242.3604 C 130.868 242.1494 131.2948 241.8602 131.7084 241.7177 C 132.1221 241.5752 132.5642 241.3109 132.691 241.1304 C 132.854 240.8982 133.3521 240.7799 134.3922 240.7263 C 135.7104 240.6583 135.9418 240.7066 136.6225 241.1922 C 137.0402 241.4901 137.5098 241.7339 137.6662 241.7339 C 137.8226 241.7339 138.0463 241.9212 138.1635 242.1501 C 138.2806 242.379 138.5837 242.6207 138.8371 242.6872 C 139.0905 242.7538 139.6958 243.2228 140.1823 243.7296 C 140.6766 244.2444 141.2605 244.6539 141.5058 244.6578 C 141.9791 244.6652 142.568 243.9557 142.568 243.3781 C 142.568 243.1823 142.7931 242.7422 143.0683 242.4001 C 143.3435 242.058 143.5687 241.6322 143.5687 241.4539 C 143.5687 241.2755 143.7279 241.0065 143.9224 240.8561 C 144.117 240.7056 144.4337 240.3245 144.6262 240.0091 C 144.8187 239.6936 145.4332 239.0578 145.9917 238.5961 L 147.0071 237.7565 L 148.9037 237.7565 C 150.6841 237.7565 151.4958 237.9506 151.8071 238.4507 C 151.9366 238.6587 153.0891 238.7543 153.2639 238.5715 C 153.3123 238.5208 153.373 237.9967 153.3987 237.4067 C 153.433 236.6223 153.3529 236.2372 153.1007 235.9734 C 152.911 235.775 152.7045 235.3442 152.6417 235.0161 C 152.5789 234.6878 152.3583 234.3633 152.151 234.2945 C 151.9438 234.2257 151.6811 233.9874 151.5673 233.7649 C 151.4534 233.5424 151.2424 233.3604 151.0982 233.3604 C 150.954 233.3604 150.678 233.1778 150.4849 232.9547 C 150.2918 232.7315 149.6736 232.4456 149.1111 232.3195 C 148.5485 232.1933 147.9429 231.9524 147.7652 231.7841 C 147.5182 231.5504 146.3703 231.4256 142.8946 231.2547 L 138.3472 231.0311 L 137.4554 230.4016 C 136.9649 230.0554 136.5636 229.6887 136.5636 229.5869 C 136.5636 229.485 136.3306 229.0442 136.0459 228.6073 C 135.5795 227.8918 135.5349 227.6537 135.5963 226.2067 C 135.6522 224.8899 135.7455 224.51 136.114 224.0998 C 136.3613 223.8245 136.5636 223.3871 136.5636 223.1278 C 136.5636 222.8017 137.3349 221.8594 139.0654 220.0716 C 140.4414 218.6501 141.5672 217.3868 141.5672 217.2644 C 141.5672 217.142 141.7924 216.8875 142.0676 216.6989 C 142.3428 216.5103 142.568 216.1742 142.568 215.9519 C 142.568 215.7297 142.7931 215.3123 143.0683 215.0245 C 143.3435 214.7366 143.5687 214.3242 143.5687 214.108 C 143.5687 213.8918 143.7939 213.435 144.0691 213.093 C 144.3443 212.7509 144.5694 212.3338 144.5694 212.1661 C 144.5694 211.9984 144.7946 211.4182 145.0698 210.8769 C 145.345 210.3355 145.5702 209.7275 145.5702 209.5257 C 145.5702 209.3239 145.7953 208.8395 146.0705 208.4494 C 146.4123 207.9649 146.5709 207.4685 146.5709 206.883 C 146.5709 206.4116 146.7603 205.6527 146.9918 205.1966 C 147.2714 204.6457 147.4697 203.7165 147.5825 202.4285 C 147.6758 201.3621 147.9283 199.8078 148.1436 198.9744 C 148.4661 197.7261 148.5521 196.5375 148.6322 192.2258 C 148.7768 184.4332 148.489 174.3236 148.0779 172.7576 C 147.8901 172.0425 147.669 169.9915 147.5645 167.9953 C 147.4218 165.2704 147.3042 164.3666 147.0369 163.9399 C 146.7999 163.5616 146.6895 162.9442 146.6819 161.9553 C 146.6728 160.7562 146.7427 160.4417 147.107 160.0446 C 149.0283 157.9506 150.24 156.7433 150.4202 156.7433 C 150.7839 156.7433 151.9848 158.1758 152.2201 158.8904 C 152.3431 159.2638 152.6085 159.6925 152.8097 159.8429 C 153.011 159.9934 153.1757 160.2395 153.1757 160.3898 C 153.1757 160.5402 153.4459 161.0188 153.7762 161.4534 C 154.1064 161.888 154.3766 162.3336 154.3766 162.4435 C 154.3766 162.5534 154.5568 162.8829 154.7769 163.1756 C 154.9971 163.4684 155.1772 163.8828 155.1772 164.0966 C 155.1772 164.3103 155.3596 164.6038 155.5826 164.7487 C 155.8056 164.8936 156.0823 165.389 156.1975 165.8495 C 156.3127 166.31 156.5436 166.7975 156.7107 166.9329 C 156.8777 167.0683 157.0982 167.5693 157.2007 168.0462 C 157.3031 168.5231 157.5563 169.166 157.7632 169.4747 C 157.9702 169.7835 158.1978 170.4576 158.2691 170.9727 C 158.3403 171.4879 158.5403 172.073 158.7135 172.2732 C 158.9142 172.5051 159.0968 173.3422 159.2171 174.5813 C 159.3209 175.6507 159.5355 176.8233 159.6941 177.187 C 160.1385 178.2067 160.2648 181.8761 159.9236 183.8524 C 159.6786 185.2718 159.6749 185.7664 159.8997 187.0971 C 160.0456 187.9606 160.1685 189.3423 160.1729 190.1677 C 160.184 192.2582 160.2927 192.4724 160.9366 191.6719 C 161.2789 191.2465 161.5043 190.6465 161.6006 189.9042 C 161.6814 189.2812 161.9326 188.5329 162.1645 188.2246 C 162.4547 187.8387 162.5826 187.3658 162.5826 186.6784 C 162.5826 185.979 162.7103 185.5184 163.0175 185.11 C 163.3459 184.6733 163.4846 184.1159 163.5845 182.8315 C 163.6663 181.7791 163.8712 180.8119 164.1223 180.2937 C 164.4392 179.6393 164.5552 178.8671 164.6532 176.7602 C 164.7221 175.2773 164.919 173.4785 165.0906 172.7628 C 165.4572 171.2343 165.4151 164.5439 165.0302 163.1209 C 164.9045 162.6564 164.7117 161.1156 164.6019 159.697 C 164.4694 157.9862 164.2944 156.9456 164.0821 156.6066 C 163.906 156.3256 163.6861 155.3883 163.5934 154.5237 C 163.4919 153.5773 163.2947 152.8013 163.0978 152.5738 C 162.918 152.3659 162.6892 151.6882 162.5895 151.0678 C 162.4898 150.4474 162.2348 149.5631 162.0227 149.1026 C 161.8106 148.642 161.5864 147.919 161.5244 147.4959 C 161.4625 147.0728 161.2249 146.5311 160.9965 146.2922 C 160.7681 146.0533 160.5811 145.5898 160.5811 145.2623 C 160.5811 144.9345 160.4029 144.498 160.1848 144.2915 C 159.9668 144.0852 159.7286 143.576 159.6555 143.1601 C 159.5824 142.7441 159.3105 142.1375 159.0511 141.8121 C 158.7918 141.4866 158.5797 141.0292 158.5797 140.7956 C 158.5797 140.562 158.3545 140.091 158.0793 139.7489 C 157.8041 139.4068 157.5789 138.9829 157.5789 138.8069 C 157.5789 138.6309 157.3538 138.207 157.0786 137.8649 C 156.8034 137.5228 156.5782 137.0989 156.5782 136.9229 C 156.5782 136.7468 156.3531 136.3229 156.0779 135.9809 C 155.8027 135.6388 155.5775 135.1677 155.5775 134.9341 C 155.5775 134.7004 155.3625 134.3324 155.0996 134.1161 C 154.8368 133.8999 154.5602 133.4666 154.485 133.1533 C 154.4099 132.84 154.1746 132.4564 153.9622 132.3008 C 153.7498 132.1452 153.576 131.8853 153.576 131.7231 C 153.576 131.561 153.4054 131.3328 153.1968 131.2161 C 152.9882 131.0993 152.7177 130.7043 152.5958 130.3383 C 152.4738 129.9723 152.1941 129.541 151.9742 129.38 C 151.7544 129.2189 151.5746 128.9897 151.5746 128.8705 C 151.5746 128.6425 151.2758 128.2114 149.7232 126.1996 C 149.2003 125.5219 148.7725 124.8813 148.7725 124.7757 C 148.7725 124.6702 148.5023 124.3131 148.1721 123.9822 C 147.8418 123.6513 147.5716 123.2206 147.5716 123.0251 C 147.5716 122.8296 147.3465 122.5154 147.0713 122.3268 C 146.7961 122.1382 146.5709 121.8791 146.5709 121.751 C 146.5709 121.623 146.3683 121.3138 146.1206 121.0639 C 145.4881 120.426 144.7722 119.4611 144.5194 118.9058 C 144.4015 118.6467 144.1861 118.4348 144.0407 118.4348 C 143.8954 118.4348 143.7208 118.2027 143.6527 117.919 C 143.5846 117.6352 143.3577 117.3463 143.1485 117.2768 C 142.9393 117.2074 142.7681 117.0627 142.7681 116.9553 C 142.7681 116.8479 142.5657 116.5484 142.3184 116.2897 C 141.7587 115.7043 140.5665 114.0808 140.5665 113.9039 C 140.5665 113.8318 140.3638 113.5568 140.1161 113.2929 C 139.0408 112.1471 138.8769 111.9636 138.1694 111.1137 C 137.8366 110.7138 137.5643 110.2686 137.5643 110.1242 C 137.5643 109.9798 137.3391 109.7073 137.0639 109.5187 C 136.7887 109.3301 136.5636 109.0092 136.5636 108.8056 C 136.5636 108.6021 136.3767 108.3844 136.1484 108.3219 C 135.9201 108.2595 135.6844 108.013 135.6247 107.7742 C 135.565 107.5354 135.3938 107.3399 135.2444 107.3399 C 135.0949 107.3399 134.8329 107.0573 134.6622 106.7119 C 134.4914 106.3665 134.2662 106.0839 134.1618 106.0839 C 134.0574 106.0839 133.8211 105.7778 133.6367 105.4036 C 133.4524 105.0294 133.1348 104.6002 132.9311 104.4497 C 132.7273 104.2993 132.5606 104.051 132.5606 103.8981 C 132.5606 103.7452 132.3354 103.4657 132.0602 103.2771 C 131.785 103.0885 131.5598 102.7951 131.5598 102.625 C 131.5598 102.455 131.4256 102.3159 131.2616 102.3159 C 130.9088 102.3159 129.5705 100.4789 129.5634 99.98492 C 129.5606 99.79667 129.3333 99.48834 129.058 99.29974 C 128.7828 99.11115 128.5577 98.85486 128.5577 98.73021 C 128.5577 98.60558 128.3325 98.22371 128.0573 97.88163 C 127.7821 97.53955 127.5569 97.0818 127.5569 96.86442 C 127.5569 96.64705 127.3926 96.37723 127.1919 96.26484 C 126.9911 96.15244 126.72 95.68786 126.5896 95.23244 C 126.4591 94.77703 126.2231 94.35252 126.0651 94.28909 C 125.907 94.22566 125.7167 93.81555 125.6422 93.37774 C 125.5677 92.93993 125.3303 92.2757 125.1146 91.90165 C 124.8921 91.51559 124.652 90.56525 124.5594 89.70361 C 124.4696 88.86876 124.2557 87.80888 124.084 87.34834 C 123.6711 86.24108 123.6695 84.37698 124.0808 83.58028 C 124.2591 83.23487 124.4706 82.21932 124.5508 81.32351 C 124.6615 80.08652 124.7999 79.57977 125.126 79.21667 C 125.3622 78.95371 125.5555 78.57358 125.5555 78.37194 C 125.5555 77.89834 125.9388 77.13742 126.2852 76.92345 C 126.4342 76.83138 126.5562 76.6188 126.5562 76.45105 C 126.5562 76.28331 126.7813 75.9413 127.0565 75.69102 C 127.3317 75.44075 127.5569 75.10352 127.5569 74.9416 C 127.5569 74.77969 128.0523 74.14137 128.6577 73.52312 C 129.2632 72.9049 129.7585 72.30709 129.7585 72.19469 C 129.7585 72.08228 129.9162 71.93714 130.1088 71.87215 C 130.4236 71.76592 130.8964 71.35207 133.1177 69.23817 C 133.4792 68.89418 133.9415 68.61272 134.1452 68.61272 C 134.3488 68.61272 134.5625 68.42432 134.6201 68.19405 C 134.682 67.94643 134.8931 67.77538 135.1367 67.77538 C 135.3633 67.77538 135.6412 67.59464 135.7543 67.37373 C 135.8673 67.15282 136.2392 66.90788 136.5806 66.82944 C 136.9221 66.75101 137.3894 66.46073 137.6191 66.18441 C 137.8488 65.90809 138.191 65.68203 138.3796 65.68203 C 138.5681 65.68203 138.7724 65.54566 138.8335 65.37899 C 138.8947 65.21232 139.3299 64.96746 139.8007 64.83487 C 140.2715 64.70228 140.7741 64.41849 140.9175 64.20424 C 141.061 63.98999 141.4869 63.75418 141.864 63.68019 C 142.4911 63.55714 142.5607 63.46845 142.6794 62.64001 C 142.7509 62.14189 142.7525 61.63823 142.6831 61.52076 C 142.4849 61.1853 137.8365 61.46844 136.7637 61.88131 C 135.9865 62.18044 134.8604 62.22796 128.5487 62.22796 C 121.9197 62.22796 121.1843 62.19364 120.7 61.86163 C 120.3498 61.62156 119.7665 61.49352 119.0077 61.49017 C 117.6439 61.48414 116.1777 61.16373 115.7512 60.77853 C 115.5845 60.62791 114.969 60.44864 114.3835 60.38012 C 113.798 60.31163 113.0016 60.05045 112.6137 59.79973 C 111.947 59.36876 111.6796 59.34427 107.7093 59.35082 C 103.6955 59.35744 103.4899 59.37758 103.053 59.80679 C 102.8017 60.05377 102.2453 60.31351 101.8167 60.38397 C 101.3882 60.45444 100.9693 60.63205 100.8858 60.77866 C 100.8024 60.92525 100.3971 61.15898 99.98518 61.29803 C 99.57323 61.4371 99.09211 61.70322 98.91603 61.88941 C 98.73995 62.07561 98.09131 62.55766 97.47459 62.96064 C 96.85787 63.36362 96.34895 63.81309 96.34367 63.95947 C 96.33838 64.10586 96.10889 64.33293 95.83369 64.46408 C 95.55849 64.59523 95.33331 64.82544 95.33331 64.97565 C 95.33331 65.12587 95.06312 65.57065 94.73288 65.96403 C 94.40264 66.35742 94.13243 66.7813 94.13243 66.90597 C 94.13243 67.03064 93.96279 67.22761 93.75544 67.34367 C 93.54809 67.45974 93.31932 67.88425 93.24708 68.28703 C 93.17484 68.68982 92.94466 69.14469 92.73559 69.29786 C 92.47845 69.48624 92.31287 69.94538 92.2239 70.71688 C 92.15156 71.34418 91.92094 72.11268 91.71139 72.42464 C 91.34949 72.9634 91.33033 73.50392 91.32888 83.20546 C 91.32733 93.42538 91.1818 96.54046 90.66695 97.37168 C 90.51588 97.61559 90.33694 98.57918 90.2693 99.51299 C 90.15263 101.1238 89.83498 102.3159 89.52242 102.3159 C 89.44402 102.3159 89.33604 102.7929 89.28248 103.376 C 89.22783 103.9708 89.00785 104.6868 88.78123 105.0074 C 88.5591 105.3217 88.31471 105.9666 88.23814 106.4407 C 88.16155 106.9148 87.93188 107.4607 87.72776 107.654 C 87.52364 107.8472 87.29636 108.3785 87.22268 108.8346 C 87.14899 109.2908 86.92773 109.8241 86.73102 110.0197 C 86.5343 110.2153 86.3107 110.6814 86.23412 111.0554 C 86.15754 111.4295 85.93478 111.8534 85.73914 111.9974 C 85.54349 112.1415 85.31511 112.4949 85.23164 112.7827 C 85.14816 113.0705 84.91605 113.4945 84.71587 113.7247 C 84.51569 113.955 84.25809 114.4024 84.14339 114.7191 C 84.0287 115.0357 83.79754 115.2947 83.62969 115.2947 C 83.46185 115.2947 83.32452 115.4662 83.32452 115.6757 C 83.32452 115.8852 83.05431 116.3732 82.72408 116.7601 C 82.39384 117.147 82.12364 117.5815 82.12364 117.7257 C 82.12364 117.8699 81.96333 118.0411 81.76741 118.1061 C 81.57148 118.1712 81.30911 118.5072 81.18436 118.8529 C 81.0596 119.1986 80.81462 119.4815 80.63994 119.4815 C 80.46526 119.4815 80.32232 119.6195 80.32232 119.7882 C 80.32232 119.9569 80.06732 120.4043 79.75565 120.7825 C 79.44398 121.1607 79.13157 121.635 79.06141 121.8365 C 78.99125 122.038 78.81567 122.2028 78.67124 122.2028 C 78.5268 122.2028 78.30663 122.4854 78.18198 122.8308 C 78.05733 123.1763 77.82243 123.4589 77.66 123.4589 C 77.48114 123.4589 77.31302 123.7468 77.2337 124.189 C 77.1593 124.6038 76.92946 125.0161 76.70148 125.1437 C 76.48078 125.2673 76.21671 125.5981 76.11462 125.8789 C 76.01253 126.1598 75.79166 126.3896 75.62382 126.3896 C 75.44981 126.3896 75.31866 126.5736 75.31866 126.8177 C 75.31866 127.0532 75.08738 127.4878 74.80471 127.7834 C 74.52204 128.0791 74.20906 128.5458 74.10917 128.8206 C 74.00928 129.0954 73.80145 129.3203 73.64737 129.3203 C 73.49329 129.3203 73.31715 129.5821 73.25597 129.9021 C 73.19477 130.2221 72.91332 130.7451 72.63051 131.0642 C 72.34769 131.3834 72.1163 131.7746 72.1163 131.9337 C 72.1163 132.0927 71.93617 132.2826 71.71601 132.3557 C 71.45759 132.4414 71.31571 132.6724 71.31571 133.0073 C 71.31571 133.2926 71.09857 133.7531 70.83317 134.0307 C 70.56776 134.3083 70.29044 134.822 70.21688 135.1723 C 70.14333 135.5226 69.92393 135.927 69.72936 136.0711 C 69.53478 136.2152 69.26264 136.6929 69.12462 137.1327 C 68.98659 137.5725 68.74762 137.983 68.59358 138.0448 C 68.43954 138.1066 68.31351 138.3224 68.31351 138.5242 C 68.31351 138.7261 68.10226 139.2169 67.84404 139.6149 C 67.58585 140.0129 67.31333 140.5936 67.2385 140.9055 C 67.16367 141.2173 66.93378 141.6489 66.72762 141.8645 C 66.52147 142.0801 66.29057 142.5528 66.21452 142.915 C 66.13846 143.2773 65.91688 143.7343 65.72215 143.9307 C 65.5274 144.1271 65.31325 144.6646 65.24621 145.1252 C 65.17294 145.6285 64.96198 146.0771 64.71744 146.2497 C 64.49366 146.4077 64.30935 146.7374 64.30785 146.9824 C 64.30286 147.7952 64.07185 148.3545 63.68852 148.4817 C 63.42922 148.5678 63.30984 148.8031 63.30984 149.2281 C 63.30984 149.9507 62.81322 151.3006 62.54736 151.3006 C 62.44699 151.3006 62.3091 151.793 62.24096 152.3948 C 62.17281 152.9966 61.9351 153.7464 61.71272 154.061 C 61.49033 154.3756 61.30837 154.8538 61.30837 155.1237 C 61.30837 155.3936 61.09211 156.0804 60.8278 156.6499 C 60.56348 157.2194 60.28872 158.1262 60.21721 158.665 C 60.14571 159.2038 59.92519 159.8632 59.72717 160.1303 C 59.52916 160.3975 59.30642 161.1699 59.23218 161.8468 C 59.15658 162.536 58.92317 163.3331 58.70168 163.6584 C 58.48415 163.978 58.30402 164.5546 58.3014 164.9398 C 58.29446 165.9576 57.99622 167.1456 57.6591 167.4982 C 57.48499 167.6803 57.31667 168.4225 57.24407 169.3282 C 57.16257 170.3449 56.99363 171.0333 56.73628 171.3974 C 56.45242 171.799 56.33106 172.3819 56.27643 173.6063 C 56.22268 174.8108 56.07834 175.5168 55.7531 176.1657 C 55.50227 176.6662 55.30013 177.4518 55.29526 177.9451 C 55.29047 178.4309 55.21249 179.2287 55.12198 179.718 C 54.99488 180.4052 55.01806 180.6077 55.22374 180.6077 C 55.37021 180.6077 55.58211 180.4278 55.69463 180.2079 C 55.81827 179.9662 56.21697 179.7519 56.70238 179.6661 C 57.20425 179.5775 57.50559 179.4113 57.50559 179.2234 C 57.50559 179.058 57.73076 178.8331 58.00596 178.7237 C 58.28116 178.6142 58.50632 178.4261 58.50632 178.3057 C 58.50632 178.1852 58.72157 177.9841 58.98461 177.8587 C 59.24768 177.7334 59.56099 177.4057 59.68085 177.1306 C 59.8007 176.8554 60.02577 176.6303 60.181 176.6303 C 60.34491 176.6303 60.51815 176.3242 60.59421 175.9001 C 60.66624 175.4986 60.89532 175.0748 61.10327 174.9584 C 61.31124 174.8419 61.5429 174.5346 61.61805 174.2755 C 61.6932 174.0163 61.91264 173.6158 62.10571 173.3856 C 62.29877 173.1553 62.5101 172.7296 62.57533 172.4394 C 62.64055 172.1493 62.86709 171.7175 63.07874 171.4799 C 63.29038 171.2422 63.52414 170.7593 63.59819 170.4067 C 63.67224 170.0541 63.89894 169.6084 64.10196 169.4162 C 64.30498 169.224 64.52863 168.746 64.59897 168.3538 C 64.6693 167.9617 64.88968 167.5204 65.0887 167.3732 C 65.28772 167.226 65.51344 166.7519 65.59029 166.3196 C 65.66715 165.8875 65.90016 165.368 66.10809 165.1654 C 66.31601 164.9628 66.57983 164.5393 66.69436 164.2242 C 66.80888 163.9092 67.03991 163.6514 67.20776 163.6514 C 67.3756 163.6514 67.51294 163.5095 67.51294 163.3361 C 67.51294 163.1626 67.73152 162.8218 67.9987 162.5789 C 68.26588 162.3359 68.59205 161.8655 68.72351 161.5336 C 68.85497 161.2017 69.08892 160.9301 69.24341 160.9301 C 69.3979 160.9301 69.60991 160.6946 69.71455 160.4067 C 69.81918 160.1189 70.04434 159.8834 70.21491 159.8834 C 70.38548 159.8834 70.60596 159.6608 70.70487 159.3887 C 70.80378 159.1165 71.07175 158.8428 71.30036 158.7802 C 71.52897 158.7177 71.71601 158.5164 71.71601 158.3329 C 71.71601 158.1494 71.80563 157.9994 71.91516 157.9994 C 72.02469 157.9994 72.5742 157.5284 73.13631 156.9527 C 73.69842 156.377 74.22358 155.906 74.30331 155.906 C 74.38305 155.906 74.662 155.6681 74.92321 155.3772 C 75.5624 154.6656 76.37121 154.2628 76.73036 154.4773 C 76.8896 154.5724 77.26273 154.7401 77.55954 154.8499 C 77.9785 155.005 78.12666 155.2274 78.22203 155.8442 C 78.2896 156.2812 78.47289 156.8857 78.62933 157.1876 C 78.78575 157.4896 78.97208 158.3931 79.04337 159.1954 C 79.15781 160.4832 79.12624 160.701 78.77404 161.0538 C 78.48842 161.3399 78.34339 161.8362 78.26349 162.8009 C 78.18149 163.791 78.04813 164.2352 77.76076 164.4756 C 77.48653 164.705 77.33102 165.1782 77.24045 166.0588 C 77.1694 166.7496 76.9478 167.5503 76.74802 167.8382 C 76.54823 168.126 76.32746 168.8796 76.2574 169.5128 C 76.17023 170.3008 76.00196 170.7739 75.72433 171.0117 C 75.49086 171.2118 75.31817 171.6117 75.31753 171.9538 C 75.31591 172.8138 74.94524 174.0803 74.63975 174.2695 C 74.4947 174.3593 74.32308 174.9952 74.25686 175.6883 C 74.17394 176.5558 74.02022 177.0432 73.75978 177.2641 C 73.50653 177.4789 73.33684 177.9925 73.2429 178.8284 C 73.15949 179.5707 72.95465 180.2442 72.73531 180.4973 C 72.49139 180.7788 72.32178 181.4151 72.23163 182.387 C 72.15687 183.193 71.9337 184.14 71.73567 184.4916 C 71.48353 184.9393 71.33199 185.812 71.23005 187.4036 C 71.14999 188.6536 70.91252 190.2499 70.70232 190.951 C 70.22034 192.5587 70.22044 193.2114 70.70292 195.1019 C 70.91628 195.9379 71.15367 197.5615 71.23045 198.7098 C 71.33582 200.2859 71.46554 200.9328 71.75955 201.3488 C 72.00471 201.6956 72.19153 202.3958 72.26372 203.2383 C 72.34583 204.1964 72.48164 204.6531 72.74179 204.8459 C 72.96738 205.013 73.15508 205.5087 73.23682 206.1531 C 73.30923 206.7241 73.53516 207.3922 73.73888 207.6379 C 73.9426 207.8836 74.1682 208.4257 74.24018 208.8427 C 74.31215 209.2596 74.53508 209.7652 74.73556 209.9663 C 74.93604 210.1673 75.16038 210.6854 75.23409 211.1176 C 75.3078 211.5498 75.53044 212.0919 75.72884 212.3221 C 75.92725 212.5524 76.15311 213.0234 76.23076 213.3688 C 76.3084 213.7142 76.53355 214.1852 76.73111 214.4155 C 76.92867 214.6458 77.15383 215.1168 77.23148 215.4622 C 77.30912 215.8076 77.53429 216.2786 77.73184 216.5089 C 77.9294 216.7391 78.15086 217.1798 78.224 217.4881 C 78.29713 217.7964 78.47489 218.0959 78.619 218.1537 C 78.76308 218.2116 78.99392 218.6188 79.13195 219.0586 C 79.26997 219.4984 79.54565 219.9787 79.74454 220.1259 C 79.94345 220.2732 80.16374 220.7144 80.23408 221.1066 C 80.30441 221.4987 80.53142 221.98 80.73853 222.176 C 80.94562 222.372 81.1753 222.8682 81.24892 223.2786 C 81.32253 223.6891 81.54073 224.2021 81.7338 224.4189 C 82.42876 225.1991 82.31973 228.2331 81.5705 228.9632 C 81.33715 229.1906 81.07343 229.4958 80.98445 229.6415 C 80.64622 230.1953 79.17972 231.2202 78.51435 231.3678 C 78.13273 231.4524 77.64036 231.6922 77.4202 231.9007 C 77.20004 232.1093 76.68536 232.3445 76.27649 232.4234 C 75.86761 232.5023 75.43242 232.6937 75.30941 232.8487 C 75.18641 233.0038 74.66532 233.1956 74.15145 233.275 C 73.63757 233.3544 73.0046 233.5926 72.74486 233.8044 C 72.48512 234.0162 71.83987 234.2495 71.31098 234.3229 C 70.58762 234.4232 70.324 234.5578 70.24696 234.8659 C 70.19063 235.0912 69.96848 235.3237 69.75332 235.3826 C 69.07101 235.5692 68.94139 238.8469 69.59391 239.4133 C 69.72118 239.5238 71.54965 239.6437 73.65718 239.6797 C 77.22131 239.7406 77.5216 239.7759 77.95499 240.185 C 78.21126 240.4269 78.5871 240.6865 78.79018 240.7617 C 78.99328 240.8371 79.20643 241.0866 79.26386 241.3163 C 79.32129 241.546 79.48969 241.7339 79.6381 241.7339 C 79.78651 241.7339 80.00867 241.9308 80.13177 242.1713 C 80.25487 242.4119 80.78188 243.0713 81.30289 243.6367 L 82.2502 244.6646 L 83.65879 244.6646 C 85.1302 244.6646 85.24661 244.6071 86.63397 243.1952 C 86.85801 242.9672 87.1047 242.7806 87.18215 242.7806 C 87.25961 242.7806 87.87344 242.3427 88.54621 241.8076 C 89.94566 240.6945 90.85497 240.4395 92.63973 240.66 C 93.48657 240.7646 93.98147 240.948 94.29094 241.2717 C 94.534 241.5259 94.88469 241.7339 95.07024 241.7339 C 95.25578 241.7339 95.6119 241.9346 95.8616 242.18 C 96.20667 242.519 96.58965 242.6321 97.4577 242.651 C 98.54442 242.6747 98.60716 242.6478 98.75194 242.0948 C 98.98949 241.1877 98.62185 239.0124 98.14555 238.5069 C 97.9194 238.2669 97.16064 237.4347 96.45943 236.6575 C 95.75824 235.8803 95.08289 235.2445 94.95869 235.2445 C 94.8345 235.2445 94.73288 235.1599 94.73288 235.0566 C 94.73288 234.9532 94.05757 234.1461 93.23219 233.263 C 92.4068 232.3799 91.67256 231.4047 91.6005 231.0959 C 91.52845 230.7871 91.30309 230.3098 91.09972 230.0352 C 90.60737 229.3705 90.62211 228.1175 91.13023 227.4419 C 91.3504 227.1492 91.53053 226.7552 91.53053 226.5666 C 91.53053 226.3779 91.79581 226.0643 92.12002 225.8697 C 92.44424 225.675 92.74794 225.3621 92.7949 225.1743 C 92.90726 224.7249 94.78291 223.838 95.98532 223.6657 C 96.50903 223.5906 97.18047 223.3626 97.47739 223.1591 C 97.92397 222.8529 98.46841 222.7889 100.6282 222.7889 C 103.2221 222.7889 103.2469 222.7935 104.44 223.4946 C 105.1005 223.8827 105.8186 224.3301 106.0357 224.489 C 106.2528 224.6477 106.5766 224.7776 106.7552 224.7776 C 106.9338 224.7776 107.2345 224.9562 107.4233 225.1744 C 107.6121 225.3927 108.1601 225.633 108.6411 225.7084 C 109.1221 225.7838 109.7246 226.0152 109.98 226.2226 C 110.2889 226.4734 110.9471 226.64 111.9455 226.7204 C 112.7711 226.7868 113.8519 227.0095 114.3472 227.2153 C 115.1315 227.5411 115.951 227.5911 120.6865 227.6019 C 126.8261 227.6159 126.7506 227.5967 127.1768 229.2519 C 127.297 229.7189 127.5622 230.3229 127.7662 230.5941 C 127.9702 230.8653 128.1971 231.5057 128.2704 232.0171 C 128.3437 232.5285 128.4834 232.9984 128.5807 233.0614 C 128.8153 233.213 128.809 234.5587 128.5731 234.7112 C 128.4715 234.7769 128.329 235.1129 128.2566 235.4579 C 128.1841 235.803 127.952 236.182 127.7408 236.3003 C 127.5296 236.4185 127.3568 236.6363 127.3568 236.7842 C 127.3568 236.9321 127.0866 237.3696 126.7563 237.7565 C 126.4261 238.1434 126.1559 238.6489 126.1559 238.8798 C 126.1559 239.1107 125.9724 239.5039 125.7481 239.7536 C 125.3973 240.1441 125.3385 240.4936 125.3283 242.2483 C 125.3217 243.3706 125.3926 244.3654 125.4859 244.459 C 125.7536 244.7275 126.5797 244.8452 127.5355 244.7511 C 128.225 244.6831 128.6463 244.4574 129.4892 243.7043 Z M 101.6724 208.7153 C 102.5107 208.5378 103.6403 208.3925 104.1826 208.3925 C 104.7249 208.3925 105.3798 208.2446 105.638 208.0638 C 105.8962 207.8831 106.5794 207.674 107.1563 207.5992 C 107.7332 207.5244 108.3521 207.3384 108.5318 207.1859 C 108.7115 207.0334 109.4464 206.8386 110.165 206.753 C 110.8835 206.6673 111.5983 206.4958 111.7533 206.3719 C 112.1235 206.0757 117.3101 205.7822 119.5284 205.9319 C 120.4866 205.9966 121.4665 206.1696 121.706 206.3163 C 121.9455 206.463 122.7275 206.6508 123.4437 206.7337 C 124.1599 206.8165 124.9649 207.0277 125.2326 207.203 C 125.903 207.6422 129.1639 207.6316 129.7501 207.1883 C 129.9826 207.0125 130.351 206.8687 130.5688 206.8687 C 130.7866 206.8687 131.1327 206.6728 131.3378 206.4333 C 131.5429 206.1938 131.8384 205.9979 131.9946 205.9979 C 132.3599 205.9979 134.2265 204.1381 134.2284 203.7723 C 134.2292 203.6195 134.4245 203.2006 134.6625 202.8414 C 134.9004 202.4822 135.0957 201.9648 135.0966 201.6917 C 135.0974 201.4185 135.2345 201.1426 135.4013 201.0786 C 135.5794 201.0103 135.7649 200.4803 135.8506 199.7946 C 135.9308 199.1523 136.1373 198.51 136.3094 198.3672 C 136.7871 197.9709 136.7691 184.5661 136.2893 183.418 C 136.1062 182.9799 135.901 181.881 135.8333 180.976 C 135.7656 180.071 135.5843 179.0367 135.4304 178.6775 C 135.2766 178.3183 135.0872 177.5157 135.0096 176.8941 C 134.9321 176.2725 134.7242 175.4185 134.5478 174.9963 C 134.3713 174.5741 134.2269 173.7844 134.2269 173.2413 C 134.2269 172.6698 134.0435 171.9117 133.7914 171.4416 C 133.5519 170.9948 133.3528 170.3829 133.349 170.0818 C 133.3452 169.7807 133.2053 169.3539 133.0381 169.1333 C 132.8709 168.9127 132.6658 168.325 132.5823 167.8271 C 132.4987 167.3293 132.3271 166.6771 132.201 166.3778 C 132.0748 166.0785 131.8517 165.2458 131.7052 164.5274 C 131.5587 163.809 131.3336 162.8294 131.2049 162.3505 C 131.0763 161.8715 130.9687 161.0109 130.9658 160.438 C 130.9629 159.8651 130.8163 159.1761 130.6399 158.907 C 130.4635 158.6378 130.2542 157.6861 130.1747 156.7921 C 130.0953 155.8981 129.9401 155.052 129.83 154.9119 C 129.7198 154.7719 129.5317 153.6943 129.4118 152.5173 C 129.292 151.3403 129.0973 149.9855 128.9791 149.5066 C 128.8609 149.0276 128.6754 146.1378 128.567 143.0846 C 128.4586 140.0315 128.2749 136.5539 128.1588 135.3565 C 128.0427 134.1593 127.8783 131.5142 127.7934 129.4788 C 127.7027 127.3012 127.5287 125.554 127.3707 125.2338 C 127.223 124.9345 127.0441 124.2444 126.973 123.7003 C 126.902 123.1561 126.6928 122.4214 126.5082 122.0675 C 126.3237 121.7137 126.172 121.2144 126.1713 120.9581 C 126.1706 120.7018 125.9762 120.0651 125.7393 119.5431 C 125.5024 119.0212 125.3064 118.3737 125.3038 118.1043 C 125.3009 117.8162 125.1645 117.6145 124.9723 117.6145 C 124.7927 117.6145 124.6457 117.5343 124.6457 117.4362 C 124.6457 117.1623 123.0252 114.993 122.1321 114.0713 C 121.6941 113.6192 121.027 113.0912 120.6498 112.898 C 120.2726 112.7049 119.915 112.487 119.8551 112.4139 C 119.5305 112.0178 118.2914 111.3014 117.9307 111.3014 C 117.701 111.3014 117.3982 111.163 117.2577 110.9938 C 117.1173 110.8246 116.4928 110.6195 115.8701 110.538 C 115.2474 110.4565 114.4533 110.2521 114.1055 110.0837 C 113.2673 109.6779 109.8101 109.6712 109.0109 110.0738 C 108.6875 110.2368 108.0194 110.4318 107.5263 110.5072 C 107.0331 110.5826 106.3472 110.7915 106.002 110.9715 C 105.6568 111.1515 105.2161 111.2994 105.0227 111.3001 C 104.8292 111.3008 104.4218 111.4974 104.1173 111.7368 C 103.8128 111.9763 103.3555 112.1722 103.1012 112.1722 C 102.8468 112.1722 102.5824 112.3191 102.5134 112.4987 C 102.4445 112.6783 102.2926 112.8253 102.1758 112.8253 C 101.9599 112.8253 98.85174 115.9493 98.34734 116.6733 C 98.19523 116.8917 97.92941 117.3768 97.75663 117.7514 C 97.58385 118.126 97.29185 118.4903 97.10773 118.5609 C 96.92362 118.6315 96.77299 118.8826 96.77299 119.1187 C 96.77299 119.3549 96.68742 119.601 96.58283 119.6656 C 96.2995 119.8406 95.2487 122.0641 95.2487 122.4886 C 95.2487 122.6909 95.05272 123.2406 94.81319 123.71 C 94.57366 124.1793 94.37767 124.7562 94.37767 124.9919 C 94.37767 125.2276 94.24264 125.5554 94.07761 125.7204 C 93.91256 125.8854 93.70731 126.3398 93.62154 126.7303 C 93.53577 127.1207 93.32784 127.493 93.15949 127.5575 C 92.97076 127.63 92.85339 127.9925 92.85339 128.5031 C 92.85339 128.9585 92.65866 129.9522 92.42068 130.7111 C 92.18269 131.4701 91.98611 132.336 91.98382 132.6353 C 91.98154 132.9347 91.84932 133.4293 91.68998 133.7346 C 91.53064 134.0398 91.33466 134.7681 91.25446 135.3531 C 91.17426 135.9381 90.97748 136.619 90.81718 136.8662 C 90.65689 137.1135 90.46755 137.8892 90.39644 138.59 C 90.32533 139.2908 90.11412 140.0332 89.92709 140.2398 C 89.70582 140.4843 89.58705 141.0327 89.58705 141.8103 C 89.58705 142.4675 89.39338 143.7333 89.15667 144.6232 C 88.91995 145.5131 88.72335 146.584 88.7198 147.0031 C 88.71623 147.4222 88.57999 148.0205 88.417 148.3328 C 88.25401 148.645 88.05074 149.4777 87.96528 150.1832 C 87.87982 150.8886 87.68608 151.6617 87.53474 151.9012 C 87.38341 152.1407 87.19815 153.3162 87.12306 154.5135 C 87.04798 155.7108 86.83673 157.4583 86.65363 158.3967 C 86.47053 159.3352 86.32072 160.8332 86.32072 161.7257 C 86.32072 162.6182 86.15096 164.1035 85.9435 165.0264 C 85.61046 166.5078 85.56583 168.1324 85.56242 178.8951 C 85.55959 187.8497 85.62826 191.2882 85.82106 191.8479 C 85.96544 192.2669 86.18464 193.6874 86.30818 195.0044 C 86.43172 196.3215 86.67676 197.7909 86.85271 198.2698 C 87.02866 198.7487 87.17693 199.468 87.18218 199.8682 C 87.18744 200.2684 87.38773 200.8448 87.62725 201.1493 C 87.86678 201.4537 88.06275 201.8855 88.06275 202.1088 C 88.06275 202.3321 88.15144 202.5148 88.25983 202.5148 C 88.51795 202.5148 89.58705 204.3435 89.58705 204.7849 C 89.58705 204.9731 89.68643 205.1271 89.80788 205.1271 C 89.99569 205.1271 92.31183 206.892 92.63563 207.2819 C 92.81561 207.4985 94.85394 208.1983 95.90196 208.4031 C 99.6095 209.1279 99.70072 209.1328 101.6724 208.7153 Z M 114.0683 95.77094 C 113.7441 95.77094 113.2794 95.64603 113.0357 95.49338 C 112.792 95.34071 112.0214 95.15527 111.3233 95.08127 C 110.6253 95.00727 109.8411 94.86576 109.5807 94.76682 C 109.3204 94.66785 108.2567 94.49986 107.2169 94.39352 C 106.1772 94.28719 105.0525 94.05853 104.7177 93.8854 C 104.3828 93.71227 103.8342 93.57063 103.4986 93.57063 C 103.1151 93.57063 102.8884 93.46873 102.8884 93.29636 C 102.8884 93.14552 102.5958 92.81858 102.2381 92.56982 C 101.6327 92.14875 101.1259 91.27055 100.5068 89.57006 C 99.94495 88.0267 99.8327 87.14535 99.83168 84.26932 C 99.83075 81.58671 99.87897 81.15681 100.2871 80.21075 C 100.68 79.3001 101.1545 78.76854 101.5747 78.76854 C 101.6369 78.76854 101.6879 79.09974 101.6879 79.50453 C 101.6879 80.37443 102.4388 82.77747 102.8057 83.0815 C 102.9466 83.1983 103.1228 83.53612 103.1971 83.83219 C 103.2714 84.12827 103.5831 84.58155 103.8897 84.83949 C 104.1964 85.09742 104.5854 85.57555 104.7543 85.90203 C 105.1323 86.63285 107.8102 88.96999 108.2696 88.96999 C 108.3912 88.96999 108.4908 89.05878 108.4908 89.16732 C 108.4908 89.27586 108.7949 89.4917 109.1667 89.64698 C 109.5384 89.80225 109.8996 90.02157 109.9693 90.13435 C 110.039 90.24712 110.3576 90.39684 110.6773 90.46704 C 110.997 90.53724 111.3083 90.72417 111.369 90.88248 C 111.4319 91.04618 111.7438 91.17029 112.0924 91.17029 C 112.4525 91.17029 112.7526 91.29398 112.8203 91.47032 C 112.8837 91.63535 113.0471 91.77037 113.1836 91.77037 C 113.32 91.77037 113.6393 91.9504 113.8931 92.17043 C 114.1469 92.39046 114.5068 92.5705 114.693 92.5705 C 114.8792 92.5705 115.1946 92.75053 115.3937 92.97054 C 115.5929 93.19057 115.8738 93.3706 116.018 93.3706 C 116.1621 93.3706 116.3764 93.55062 116.4942 93.77065 C 116.612 93.99068 116.8403 94.17072 117.0015 94.17072 C 117.1627 94.17072 117.2946 94.33972 117.2946 94.54628 C 117.2946 94.75285 117.4296 95.0339 117.5947 95.17085 C 118.0155 95.52 117.9685 95.8733 117.4558 96.21357 C 117.067 96.47169 116.8821 96.46304 115.8373 96.13795 C 115.1886 95.9361 114.3925 95.77094 114.0683 95.77094 Z M 117.5228 72.19818 C 117.5228 76.32454 114.6081 79.67638 111.02 79.67638 C 107.4319 79.67638 104.5172 76.32454 104.5172 72.19818 C 104.5172 68.07182 107.4319 64.71997 111.02 64.71997 C 114.6081 64.71997 117.5228 68.07182 117.5228 72.19818 Z M 115.0173 72.47168 C 115.0173 74.35938 113.684 75.89278 112.0425 75.89278 C 110.401 75.89278 109.0677 74.35938 109.0677 72.47168 C 109.0677 70.58398 110.401 69.0506 112.0425 69.0506 C 113.684 69.0506 115.0173 70.58398 115.0173 72.47168 Z" fill="#000000" fill-opacity="1" stroke="#000000" stroke-opacity="1" stroke-width="0.1" stroke-linecap="round" stroke-linejoin="round"/>
<path d="M 225.5488 244.7385 C 224.0062 243.9669 223.596 243.9091 222.7591 244.3455 C 221.8357 244.827 219.7789 245.0809 218.7215 244.844 C 217.718 244.6192 217.2355 244.3508 215.7394 243.1854 C 214.8493 242.492 214.6767 242.4313 213.9371 242.5514 C 213.4872 242.6245 212.8488 242.8004 212.5184 242.9423 C 211.0625 243.5676 209.8291 243.9048 208.6967 243.987 C 207.5271 244.0719 207.4499 244.0478 206.7655 243.3833 C 205.0156 241.6843 205.5693 240.4573 209.9921 236.2334 C 211.7777 234.5282 213.6277 232.6374 214.1031 232.0318 C 215.1497 230.6985 215.8868 229.1458 215.721 228.6235 C 215.6183 228.3001 214.5828 227.8329 213.9593 227.8285 C 213.65 227.8264 211.9113 226.9741 211.0777 226.4162 C 207.8935 224.2847 203.5934 224.0786 201.2039 225.9428 C 200.6536 226.3722 197.8201 227.8274 197.5344 227.8274 C 197.0794 227.8274 196.1976 228.6249 196.1976 229.0364 C 196.1976 229.6642 197.204 231.8605 198.1665 233.3331 C 198.802 234.3055 200.7052 236.5241 202.2173 238.0553 C 203.6144 239.47 204.1686 240.7502 203.7739 241.651 C 203.6254 241.9897 203.1353 242.4785 202.6702 242.7518 C 201.9392 243.1813 201.5914 243.2434 199.916 243.2434 C 198.381 243.2434 197.8493 243.1635 197.2511 242.843 C 196.8401 242.6228 196.2962 242.4426 196.0424 242.4426 C 195.7885 242.4426 195.2276 242.6228 194.7958 242.843 C 193.6857 243.4092 190.9995 243.4088 189.8879 242.8422 C 189.1788 242.4807 188.8601 242.4538 186.6756 242.5705 C 183.545 242.7379 183.0142 242.6292 181.9972 241.6125 C 181.0572 240.6726 181.011 240.3778 181.619 239.1954 C 182.0088 238.4373 185.2686 235.0509 185.6197 235.0393 C 185.6944 235.0369 186.5127 234.283 187.4381 233.364 C 189.0116 231.8015 189.1376 231.6139 189.3797 230.4732 C 189.7545 228.7073 189.6258 228.4346 187.9028 227.3435 C 186.208 226.2702 184.5639 224.5051 183.5983 222.7221 C 183.2404 222.0614 182.865 221.4353 182.7639 221.3307 C 182.6629 221.226 182.5802 221.0144 182.5802 220.8604 C 182.5802 220.7064 182.4524 220.2964 182.2962 219.9494 C 181.5533 218.299 181.2076 217.4031 181.0756 216.7868 C 180.9966 216.4174 180.8519 216.0156 180.7541 215.8937 C 180.6563 215.7719 180.4968 215.2763 180.3997 214.7925 C 180.3026 214.3088 180.0776 213.3759 179.8997 212.7197 C 179.7219 212.0634 179.5763 211.2691 179.5763 210.9547 C 179.5763 210.6402 179.4811 210.205 179.3647 209.9875 C 179.2482 209.7701 179.029 208.5372 178.8773 207.2479 C 178.7257 205.9585 178.5058 204.318 178.3885 203.6022 C 178.2713 202.8864 178.1076 201.2207 178.0247 199.9006 C 177.8959 197.8465 177.8237 197.4909 177.5243 197.4336 C 177.3111 197.3928 177.0919 197.5484 176.9633 197.8317 C 176.8472 198.0875 176.5336 198.6571 176.2664 199.0975 C 175.0307 201.1347 174.1636 203.7226 174.1677 205.3604 C 174.1712 206.7063 173.037 209.3132 171.9666 210.4194 C 170.7033 211.725 167.7227 212.4154 166.3696 211.7159 C 165.3949 211.2119 164.4314 209.8823 163.9279 208.3464 C 163.4771 206.9708 163.4564 206.6612 163.4715 201.5 C 163.4838 197.2765 163.5592 195.7662 163.8161 194.5929 C 163.9969 193.7671 164.2316 192.5508 164.3376 191.8901 C 164.5667 190.462 164.8761 189.0562 165.2631 187.6857 C 165.4185 187.1352 165.6055 186.3694 165.6786 185.984 C 166.0813 183.8599 167.9479 178.8795 169.2802 176.374 C 169.5437 175.8785 169.9054 175.1577 170.0839 174.7723 C 170.2625 174.3869 170.9168 173.3135 171.538 172.3871 C 172.1592 171.4605 172.9329 170.2893 173.2572 169.7844 C 173.5815 169.2794 174.3249 168.2139 174.9093 167.4166 C 175.4936 166.6194 175.9717 165.9246 175.9717 165.8727 C 175.9717 165.8209 176.4458 165.0767 177.0252 164.2191 C 177.6046 163.3615 178.1914 162.4345 178.329 162.1592 C 178.4667 161.8839 178.7557 161.3884 178.9713 161.0581 C 179.1869 160.7277 179.4995 160.1872 179.666 159.8568 C 179.8326 159.5265 180.0566 159.1211 180.164 158.9559 C 180.2714 158.7907 180.7914 157.9037 181.3195 156.9848 C 181.8477 156.0659 182.415 155.1061 182.5802 154.8519 C 182.7454 154.5977 183.241 153.7834 183.6815 153.0424 C 184.1221 152.3013 184.681 151.3692 184.9236 150.971 C 185.1662 150.5727 185.4279 150.1117 185.5054 149.9465 C 185.5828 149.7814 185.7448 149.5229 185.8654 149.3721 C 186.5063 148.5708 192.3759 136.9977 192.9125 135.4773 C 193.0701 135.0307 193.276 134.5674 193.37 134.4477 C 193.8848 133.7926 194.4436 131.3803 194.4575 129.7533 C 194.4715 128.1171 194.427 127.9303 193.6327 126.2917 C 193.171 125.339 192.7932 124.4681 192.7932 124.3563 C 192.7932 124.2446 192.722 124.123 192.6349 124.0863 C 192.4494 124.0081 190.2994 120.2663 189.6056 118.8142 C 189.3425 118.2637 189.0163 117.588 188.8807 117.3127 C 188.745 117.0374 188.5668 116.4982 188.4845 116.1144 C 188.4023 115.7306 188.2227 115.2351 188.0853 115.0132 C 187.948 114.7914 187.7827 114.3217 187.7181 113.9695 C 187.5038 112.8009 186.3295 110.6895 185.4984 109.9783 C 184.514 109.1359 181.5891 107.7039 180.8477 107.7015 C 180.6441 107.7008 180.2459 107.5794 179.9628 107.4317 C 179.6798 107.2841 178.989 107.1023 178.4277 107.0279 C 177.174 106.8616 175.7687 106.1018 175.1274 105.2435 C 173.6694 103.2921 173.4006 101.6615 174.2563 99.95836 C 174.8502 98.77625 175.3812 98.26689 176.6198 97.69118 C 177.851 97.11894 181.0654 97.01958 182.291 97.51587 C 184.0709 98.23669 184.5522 98.35855 186.0716 98.47327 C 187.1513 98.55478 187.7932 98.51576 188.0742 98.35156 C 188.3016 98.21864 188.681 98.02176 188.9172 97.91403 C 189.1535 97.8063 189.3788 97.64297 189.4179 97.55107 C 189.6401 97.02853 194.892 94.10083 195.6224 94.09233 C 195.8017 94.09024 196.2921 93.94495 196.7122 93.76944 C 197.7843 93.32161 204.7351 93.33612 205.6092 93.78802 C 205.9289 93.95331 206.3681 94.08853 206.5853 94.08853 C 207.0894 94.08853 209.9822 95.55371 211.417 96.53568 C 213.1654 97.73236 216.1221 100.8188 217.5109 102.897 C 218.7878 104.8079 220.4226 107.7608 220.4353 108.1792 C 220.439 108.3026 220.6162 108.7638 220.829 109.2043 C 221.0418 109.6447 221.219 110.1222 221.2227 110.2653 C 221.2265 110.4084 221.3676 110.7925 221.5365 111.1189 C 221.7053 111.4453 221.9266 112.094 222.0284 112.5605 C 222.1301 113.027 222.3551 114.0393 222.5284 114.8101 C 222.7016 115.5809 222.9712 116.7971 223.1273 117.5129 C 223.2835 118.2286 223.4689 119.8503 223.5394 121.1166 C 223.7481 124.8652 224.1888 126.9155 225.3899 129.7255 C 225.677 130.3973 225.9166 130.9458 226.789 132.9289 C 227.007 133.4244 227.3998 134.3703 227.6619 135.0311 C 227.9239 135.6917 228.3391 136.5927 228.5846 137.0332 C 229.2625 138.2499 230.6126 141.0753 231.933 144.0404 C 232.08 144.3707 232.3903 145.0563 232.6225 145.5639 C 232.8547 146.0715 233.0446 146.6165 233.0446 146.7752 C 233.0446 146.9338 233.1256 147.1492 233.2245 147.2538 C 233.3234 147.3584 233.6498 148.0746 233.9497 148.8454 C 234.2496 149.6162 234.6114 150.5171 234.7536 150.8475 C 234.8958 151.1778 235.2543 152.0337 235.5503 152.7495 C 235.8462 153.4652 236.2145 154.29 236.3688 154.5822 C 236.523 154.8745 236.6492 155.225 236.6492 155.3611 C 236.6492 155.8079 238.7082 160.08 240.3599 163.0602 C 240.9701 164.1613 241.6072 165.3325 241.7756 165.6629 C 241.944 165.9932 242.4355 166.8941 242.8679 167.6649 C 243.9545 169.602 245.5892 172.9667 246.71 175.5732 C 246.9921 176.2291 247.5464 177.8875 248.1823 179.9777 C 248.3331 180.4732 248.5409 181.5093 248.6441 182.2801 C 248.7472 183.0509 248.9258 184.2672 249.0408 184.9829 C 250.0485 191.2506 249.9969 195.5617 248.8492 200.9995 C 248.6284 202.0456 248.3541 203.1718 248.2396 203.5021 C 248.1252 203.8325 247.9417 204.4181 247.832 204.8035 C 247.7223 205.1889 247.4592 205.8705 247.2474 206.3182 C 247.0356 206.7659 246.8623 207.2007 246.8623 207.2844 C 246.8623 207.5956 245.0157 209.822 244.3145 210.3562 C 243.6678 210.8489 243.4209 210.9095 242.071 210.9075 C 240.6852 210.9055 240.48 210.8506 239.6949 210.2726 C 237.3205 208.5248 236.7117 205.761 237.2993 199.3978 C 237.6236 195.8857 237.6178 195.159 237.2523 193.5578 C 237.0812 192.8082 236.8782 192.3925 236.6548 192.3341 C 236.3492 192.2542 236.2924 192.7035 236.0686 196.973 C 235.9323 199.573 235.7359 202.0855 235.6322 202.5565 C 235.5285 203.0274 235.353 204.2862 235.2423 205.3538 C 235.1315 206.4214 234.9572 207.5677 234.8548 207.9011 C 234.7524 208.2345 234.5313 209.2281 234.3633 210.109 C 233.8874 212.6046 233.5241 213.9958 232.9519 215.5146 C 232.6614 216.2854 232.3454 217.1607 232.2496 217.4597 C 232.0301 218.1443 230.8629 220.5567 230.4299 221.2206 C 230.2503 221.4958 229.8415 222.1239 229.5214 222.6163 C 228.7891 223.7427 226.1559 226.3616 225.5728 226.5435 C 225.3317 226.6186 225.0892 226.7355 225.0338 226.8033 C 224.8208 227.0638 223.302 227.7837 222.6814 227.9183 C 222.1396 228.0358 222.0305 228.1515 222.0305 228.6085 C 222.0305 229.505 222.6429 231.0745 223.3271 231.9317 C 223.6786 232.3721 224.0489 232.8794 224.1499 233.0589 C 224.2509 233.2385 225.0764 234.1949 225.9845 235.1842 C 227.7729 237.1329 229.3284 239.0235 230.2994 240.4287 C 230.8176 241.1788 230.916 241.513 230.9278 242.5648 C 230.9399 243.6295 230.8688 243.89 230.4413 244.3474 C 229.1959 245.68 227.6744 245.8017 225.5488 244.7385 Z M 215.9027 218.5242 C 215.1324 218.3809 214.0945 218.2636 213.5962 218.2636 C 213.0979 218.2636 212.4961 218.1442 212.2589 217.9982 C 212.0216 217.8523 211.3938 217.6834 210.8638 217.623 C 210.3337 217.5627 209.765 217.4124 209.5999 217.2893 C 209.4348 217.1662 208.7595 217.0089 208.0992 216.9398 C 207.4389 216.8706 206.7822 216.7321 206.6398 216.632 C 206.2997 216.3929 201.5339 216.156 199.4955 216.2769 C 198.6152 216.329 197.7148 216.4687 197.4947 216.5872 C 197.2746 216.7056 196.5561 216.8573 195.898 216.9242 C 195.2399 216.9911 194.5002 217.1617 194.2543 217.3032 C 193.6383 217.6578 190.6419 217.6492 190.1033 217.2913 C 189.8896 217.1494 189.5511 217.0332 189.351 217.0332 C 189.1509 217.0332 188.8329 216.875 188.6445 216.6817 C 188.456 216.4883 188.1844 216.3301 188.0409 216.3301 C 187.7053 216.3301 185.9901 214.8284 185.9884 214.533 C 185.9877 214.4096 185.8082 214.0714 185.5896 213.7814 C 185.3709 213.4913 185.1914 213.0736 185.1907 212.8531 C 185.19 212.6325 185.064 212.4098 184.9107 212.3581 C 184.747 212.3029 184.5766 211.8749 184.4978 211.3213 C 184.4241 210.8027 184.2344 210.2841 184.0763 210.1688 C 183.6373 209.8487 183.6538 199.0252 184.0947 198.0983 C 184.263 197.7445 184.4515 196.8572 184.5137 196.1265 C 184.576 195.3957 184.7425 194.5606 184.8839 194.2706 C 185.0253 193.9805 185.1993 193.3326 185.2706 192.8306 C 185.3419 192.3287 185.5328 191.6391 185.6949 191.2982 C 185.8571 190.9574 185.9897 190.3197 185.9897 189.8812 C 185.9897 189.4197 186.1583 188.8076 186.3899 188.428 C 186.61 188.0673 186.793 187.5732 186.7964 187.3301 C 186.8 187.0869 186.9285 186.7423 187.0821 186.5642 C 187.2357 186.3861 187.4242 185.9115 187.501 185.5096 C 187.5778 185.1076 187.7354 184.581 187.8513 184.3393 C 187.9673 184.0976 188.1723 183.4253 188.3069 182.8452 C 188.4414 182.2652 188.6483 181.4742 188.7665 181.0875 C 188.8847 180.7008 188.9836 180.0059 188.9863 179.5433 C 188.9889 179.0807 189.1237 178.5244 189.2857 178.3071 C 189.4478 178.0898 189.6402 177.3213 189.7132 176.5994 C 189.7862 175.8776 189.9287 175.1944 190.0299 175.0813 C 190.1311 174.9682 190.304 174.0981 190.4141 173.1478 C 190.5242 172.1974 190.7032 171.1035 190.8118 170.7168 C 190.9204 170.3301 191.0907 167.9967 191.1903 165.5315 C 191.2899 163.0663 191.4587 160.2582 191.5654 159.2915 C 191.6721 158.3247 191.8232 156.1891 191.9012 154.5456 C 191.9846 152.7873 192.1445 151.3766 192.2896 151.1181 C 192.4253 150.8764 192.5897 150.3191 192.655 149.8798 C 192.7203 149.4404 192.9125 148.8472 193.0821 148.5615 C 193.2517 148.2758 193.391 147.8727 193.3917 147.6657 C 193.3923 147.4588 193.571 146.9446 193.7887 146.5232 C 194.0063 146.1017 194.1864 145.579 194.1888 145.3615 C 194.1914 145.1288 194.3168 144.966 194.4933 144.966 C 194.6584 144.966 194.7935 144.9012 194.7935 144.8219 C 194.7935 144.6008 196.2825 142.8492 197.1031 142.105 C 197.5056 141.7399 198.1186 141.3136 198.4651 141.1577 C 198.8118 141.0017 199.1404 140.8258 199.1954 140.7668 C 199.4936 140.4469 200.6322 139.8685 200.9636 139.8685 C 201.1746 139.8685 201.4529 139.7567 201.582 139.6201 C 201.711 139.4835 202.2848 139.3179 202.857 139.2521 C 203.4292 139.1863 204.1588 139.0212 204.4784 138.8853 C 205.2485 138.5576 208.4253 138.5522 209.1596 138.8773 C 209.4568 139.0089 210.0706 139.1663 210.5238 139.2272 C 210.9769 139.2881 211.6072 139.4568 211.9244 139.6021 C 212.2416 139.7474 212.6465 139.8668 212.8243 139.8674 C 213.002 139.868 213.3764 140.0267 213.6562 140.2201 C 213.936 140.4134 214.3561 140.5716 214.5898 140.5716 C 214.8235 140.5716 215.0666 140.6903 215.1299 140.8353 C 215.1933 140.9803 215.3328 141.099 215.4401 141.099 C 215.6385 141.099 218.4944 143.6214 218.9579 144.206 C 219.0977 144.3823 219.3419 144.774 219.5007 145.0765 C 219.6595 145.379 219.9278 145.6731 220.0969 145.7301 C 220.2661 145.7871 220.4045 145.9898 220.4045 146.1805 C 220.4045 146.3712 220.4832 146.5699 220.5792 146.6221 C 220.8396 146.7634 221.8051 148.5587 221.8051 148.9015 C 221.8051 149.0649 221.9852 149.5086 222.2053 149.8876 C 222.4254 150.2666 222.6055 150.7324 222.6055 150.9227 C 222.6055 151.113 222.7295 151.3777 222.8812 151.5109 C 223.0328 151.6441 223.2214 152.0111 223.3002 152.3264 C 223.379 152.6416 223.5701 152.9422 223.7248 152.9944 C 223.8982 153.0528 224.0061 153.3456 224.0061 153.7578 C 224.0061 154.1256 224.185 154.9279 224.4037 155.5407 C 224.6223 156.1535 224.803 156.8527 224.8051 157.0944 C 224.8072 157.336 224.9287 157.7354 225.0751 157.9819 C 225.2215 158.2283 225.4016 158.8164 225.4753 159.2888 C 225.5489 159.7611 225.7298 160.3109 225.877 160.5105 C 226.0243 160.7101 226.1983 161.3365 226.2636 161.9023 C 226.329 162.4682 226.5231 163.0677 226.6949 163.2345 C 226.8982 163.4318 227.0074 163.8747 227.0074 164.5026 C 227.0074 165.0332 227.1853 166.0553 227.4028 166.7738 C 227.6203 167.4923 227.801 168.3571 227.8042 168.6954 C 227.8075 169.0338 227.9327 169.5169 228.0825 169.7691 C 228.2322 170.0212 228.419 170.6935 228.4975 171.2632 C 228.5761 171.8328 228.7541 172.457 228.8932 172.6504 C 229.0322 172.8437 229.2025 173.7929 229.2714 174.7596 C 229.3404 175.7264 229.5345 177.1373 229.7028 177.8951 C 229.871 178.6528 230.0087 179.8624 230.0087 180.5831 C 230.0087 181.3037 230.1647 182.503 230.3553 183.2481 C 230.6613 184.4443 230.7023 185.7561 230.7054 194.4463 C 230.708 201.6765 230.6449 204.4529 230.4678 204.9048 C 230.3351 205.2431 230.1337 206.3901 230.0202 207.4535 C 229.9067 208.5169 229.6815 209.7034 229.5199 210.0901 C 229.3582 210.4768 229.2219 211.0576 229.2171 211.3807 C 229.2123 211.7038 229.0283 212.1693 228.8082 212.4151 C 228.5881 212.6609 228.408 213.0096 228.408 213.1899 C 228.408 213.3702 228.3265 213.5177 228.2269 213.5177 C 227.9897 213.5177 227.0074 214.9942 227.0074 215.3507 C 227.0074 215.5027 226.9161 215.627 226.8045 215.627 C 226.6319 215.627 224.5037 217.0521 224.2062 217.3668 C 224.0408 217.5418 222.1679 218.1068 221.2049 218.2722 C 217.7982 218.8574 217.7144 218.8614 215.9027 218.5242 Z M 209.8633 105.0377 C 209.8633 109.3435 206.3657 112.8411 202.0599 112.8411 C 197.7542 112.8411 194.2566 109.3435 194.2566 105.0377 C 194.2566 100.7319 197.7542 97.23433 202.0599 97.23433 C 206.3657 97.23433 209.8633 100.7319 209.8633 105.0377 Z M 205.6364 103.8997 C 205.6364 106.5011 203.5233 108.6143 200.9219 108.6143 C 198.3205 108.6143 196.2074 106.5011 196.2074 103.8997 C 196.2074 101.2983 198.3205 99.18517 200.9219 99.18517 C 203.5233 99.18517 205.6364 101.2983 205.6364 103.8997 Z M 199.4981 127.7139 C 199.311 127.2984 199.3275 127.2294 199.7631 126.6064 C 200.0187 126.2409 200.4675 125.7748 200.7605 125.5705 C 201.5262 125.0369 202.6643 124.4139 202.8076 124.45 C 202.875 124.467 203.4256 124.2128 204.0311 123.8852 C 204.6367 123.5575 205.2725 123.3248 205.444 123.3681 C 205.6155 123.4113 205.8304 123.3515 205.9215 123.2351 C 206.0125 123.1188 206.379 122.9394 206.7357 122.8366 C 207.6882 122.5621 210.2512 121.1498 211.342 120.2985 C 214.0158 118.2117 216.5963 114.8614 217.4397 112.3817 C 217.7238 111.5461 217.9675 111.0692 218.0707 111.1462 C 218.1632 111.2152 218.3038 111.8925 218.3832 112.6515 C 218.5218 113.9766 218.4921 114.1717 217.6342 117.5759 C 216.6734 121.3887 216.1118 122.8384 214.8242 124.8298 C 213.9061 126.2497 212.2148 127.8186 211.7331 127.6972 C 211.5347 127.6472 211.1346 127.6646 210.844 127.7359 C 210.5535 127.8072 209.5164 127.8279 208.5395 127.7818 C 206.8602 127.7027 204.4004 127.7535 202.7758 127.9008 C 202.373 127.9374 201.551 128.004 200.9492 128.0488 C 200.3475 128.0937 199.8197 128.1363 199.7764 128.1436 C 199.7332 128.1509 199.6079 127.9575 199.4981 127.7139 Z" fill="#000000" fill-opacity="1" stroke="#000000" stroke-opacity="1" stroke-width="0.1" stroke-linecap="round" stroke-linejoin="round"/>
</svg>