<svg xmlns="http://www.w3.org/2000/svg" viewBox="0 8.84000015258789 415.4800109863281 37.029998779296875" data-asc="0.9052734375" width="415.4800109863281" height="37.029998779296875"><defs/><g fill="#000000"><g transform="translate(0, 0)"><path d="M0 45.26L13.75 9.47L18.85 9.47L33.50 45.26L28.10 45.26L23.93 34.42L8.96 34.42L5.03 45.26L0 45.26M10.33 30.57L22.46 30.57L18.73 20.65Q17.02 16.14 16.19 13.23Q15.50 16.67 14.26 20.07L10.33 30.57ZM41.67 45.26L32.18 9.47L37.04 9.47L42.48 32.93Q43.36 36.62 43.99 40.26Q45.36 34.52 45.61 33.64L52.42 9.47L58.13 9.47L63.26 27.59Q65.19 34.33 66.04 40.26Q66.72 36.87 67.82 32.47L73.44 9.47L78.20 9.47L68.38 45.26L63.82 45.26L56.27 17.99Q55.32 14.58 55.15 13.79Q54.59 16.26 54.10 17.99L46.51 45.26L41.67 45.26ZM82.71 45.26L82.71 9.47L108.59 9.47L108.59 13.70L87.45 13.70L87.45 24.66L107.25 24.66L107.25 28.86L87.45 28.86L87.45 41.04L109.42 41.04L109.42 45.26L82.71 45.26ZM114.36 33.76L118.82 33.37Q119.14 36.06 120.30 37.78Q121.46 39.50 123.90 40.56Q126.34 41.63 129.39 41.63Q132.10 41.63 134.18 40.82Q136.25 40.01 137.27 38.61Q138.28 37.21 138.28 35.55Q138.28 33.86 137.30 32.60Q136.33 31.35 134.08 30.49Q132.64 29.93 127.71 28.75Q122.78 27.56 120.80 26.51Q118.24 25.17 116.98 23.18Q115.72 21.19 115.72 18.73Q115.72 16.02 117.26 13.66Q118.80 11.30 121.75 10.08Q124.71 8.86 128.32 8.86Q132.30 8.86 135.34 10.14Q138.38 11.43 140.01 13.92Q141.65 16.41 141.77 19.56L137.23 19.90Q136.87 16.50 134.75 14.77Q132.64 13.04 128.52 13.04Q124.22 13.04 122.25 14.61Q120.29 16.19 120.29 18.41Q120.29 20.34 121.68 21.58Q123.05 22.83 128.82 24.13Q134.59 25.44 136.74 26.42Q139.87 27.86 141.36 30.07Q142.85 32.28 142.85 35.16Q142.85 38.01 141.21 40.54Q139.58 43.07 136.51 44.47Q133.45 45.87 129.61 45.87Q124.76 45.87 121.47 44.46Q118.19 43.04 116.32 40.20Q114.45 37.35 114.36 33.76ZM147.88 27.83Q147.88 18.92 152.66 13.88Q157.45 8.84 165.01 8.84Q169.97 8.84 173.95 11.21Q177.93 13.57 180.02 17.81Q182.10 22.05 182.10 27.42Q182.10 32.86 179.91 37.16Q177.71 41.46 173.68 43.66Q169.65 45.87 164.99 45.87Q159.94 45.87 155.96 43.43Q151.98 40.99 149.93 36.77Q147.88 32.54 147.88 27.83M152.76 27.91Q152.76 34.38 156.24 38.10Q159.72 41.82 164.97 41.82Q170.31 41.82 173.77 38.06Q177.22 34.30 177.22 27.39Q177.22 23.02 175.74 19.76Q174.27 16.50 171.42 14.71Q168.58 12.92 165.04 12.92Q160.01 12.92 156.38 16.37Q152.76 19.82 152.76 27.91ZM188.06 45.26L188.06 9.47L195.19 9.47L203.66 34.81Q204.83 38.35 205.37 40.11Q205.98 38.16 207.28 34.38L215.84 9.47L222.22 9.47L222.22 45.26L217.65 45.26L217.65 15.31L207.25 45.26L202.98 45.26L192.63 14.79L192.63 45.26L188.06 45.26ZM229.96 45.26L229.96 9.47L255.83 9.47L255.83 13.70L234.69 13.70L234.69 24.66L254.49 24.66L254.49 28.86L234.69 28.86L234.69 41.04L256.67 41.04L256.67 45.26L229.96 45.26ZM276.90 45.26L276.90 9.47L281.64 9.47L281.64 41.04L299.27 41.04L299.27 45.26L276.90 45.26ZM303.47 27.83Q303.47 18.92 308.25 13.88Q313.04 8.84 320.61 8.84Q325.56 8.84 329.54 11.21Q333.52 13.57 335.61 17.81Q337.70 22.05 337.70 27.42Q337.70 32.86 335.50 37.16Q333.30 41.46 329.27 43.66Q325.24 45.87 320.58 45.87Q315.53 45.87 311.55 43.43Q307.57 40.99 305.52 36.77Q303.47 32.54 303.47 27.83M308.35 27.91Q308.35 34.38 311.83 38.10Q315.31 41.82 320.56 41.82Q325.90 41.82 329.36 38.06Q332.81 34.30 332.81 27.39Q332.81 23.02 331.34 19.76Q329.86 16.50 327.01 14.71Q324.17 12.92 320.63 12.92Q315.60 12.92 311.98 16.37Q308.35 19.82 308.35 27.91ZM360.55 31.23L360.55 27.03L375.71 27.00L375.71 40.28Q372.22 43.07 368.51 44.47Q364.79 45.87 360.89 45.87Q355.62 45.87 351.31 43.62Q347.00 41.36 344.80 37.08Q342.60 32.81 342.60 27.54Q342.60 22.31 344.79 17.79Q346.97 13.26 351.07 11.06Q355.18 8.86 360.52 8.86Q364.40 8.86 367.54 10.12Q370.68 11.38 372.46 13.62Q374.24 15.87 375.17 19.48L370.90 20.65Q370.09 17.92 368.90 16.36Q367.70 14.79 365.48 13.85Q363.26 12.92 360.55 12.92Q357.30 12.92 354.93 13.90Q352.56 14.89 351.11 16.50Q349.66 18.12 348.85 20.04Q347.49 23.36 347.49 27.25Q347.49 32.03 349.13 35.25Q350.78 38.48 353.93 40.04Q357.08 41.60 360.62 41.60Q363.70 41.60 366.63 40.42Q369.56 39.23 371.07 37.89L371.07 31.23L360.55 31.23ZM381.25 27.83Q381.25 18.92 386.04 13.88Q390.82 8.84 398.39 8.84Q403.34 8.84 407.32 11.21Q411.30 13.57 413.39 17.81Q415.48 22.05 415.48 27.42Q415.48 32.86 413.28 37.16Q411.08 41.46 407.06 43.66Q403.03 45.87 398.36 45.87Q393.31 45.87 389.33 43.43Q385.35 40.99 383.30 36.77Q381.25 32.54 381.25 27.83M386.13 27.91Q386.13 34.38 389.61 38.10Q393.09 41.82 398.34 41.82Q403.69 41.82 407.14 38.06Q410.60 34.30 410.60 27.39Q410.60 23.02 409.12 19.76Q407.64 16.50 404.80 14.71Q401.95 12.92 398.41 12.92Q393.38 12.92 389.76 16.37Q386.13 19.82 386.13 27.91Z"/></g></g></svg>