<?xml version="1.0" encoding="UTF-8"?>
<!DOCTYPE svg PUBLIC "-//W3C//DTD SVG 1.1//EN" "http://www.w3.org/Graphics/SVG/1.1/DTD/svg11.dtd">
<!-- Creator: CorelDRAW -->
<svg xmlns="http://www.w3.org/2000/svg" xml:space="preserve" width="189.553mm" height="42.3919mm" version="1.1" style="shape-rendering:geometricPrecision; text-rendering:geometricPrecision; image-rendering:optimizeQuality; fill-rule:evenodd; clip-rule:evenodd"
viewBox="0 0 920.16 205.79"
 xmlns:xlink="http://www.w3.org/1999/xlink"
 xmlns:xodm="http://www.corel.com/coreldraw/odm/2003">
 <g id="圖層_x0020_1">
  <metadata id="CorelCorpID_0Corel-Layer"/>
  <g id="_1875351668448">
   <path fill="white" d="M148.95 159.71l-9.21 0 0.87 -8.03 7.48 0 -4.17 3.38c2.31,1.99 3.99,3.54 5.04,4.64zm0.95 -18.03l-8.19 0 0.87 -8.03 6.61 0 -4.25 3.15c1.63,1.47 3.28,3.1 4.96,4.88zm12.04 10c-0.05,2.83 -0.13,5.51 -0.24,8.03l-6.69 0 3.7 -3.46c-2.83,-2.41 -4.64,-3.93 -5.43,-4.56l8.66 0zm0.24 -10l-6.53 0 3.94 -3.23c-1.73,-1.57 -3.46,-3.17 -5.19,-4.8l7.95 0c-0.1,3.67 -0.16,6.35 -0.16,8.03zm11.26 0c0.16,-5.93 0.32,-11.86 0.47,-17.79l-34.47 0c0.79,-1.05 1.57,-2.1 2.36,-3.15l35.42 0 0 -10 -29.52 0c0.68,-1.36 1.34,-2.73 1.97,-4.09l-12.36 -1.65c-3.25,7.77 -8.55,15.01 -15.9,21.72l8.03 8.19c0.63,-0.63 1.26,-1.26 1.89,-1.89l-0.94 8.66 -6.61 0 0 10 5.59 0 -1.89 17.79 33.37 0c-0.05,0.16 -0.21,0.45 -0.47,0.87 -0.63,0.63 -1.84,1 -3.62,1.1 -1.63,0 -5.17,-0.1 -10.63,-0.32l2.83 8.82c4.67,0.16 8.58,0.16 11.73,0 4.14,-0.21 7.19,-1.29 9.13,-3.23 1.52,-1.68 2.47,-4.09 2.83,-7.24l5.75 0 0 -9.76 -5.43 0c0.1,-2.68 0.18,-5.35 0.24,-8.03l6.53 0 0 -10 -6.3 0zm-68.72 -4.17l5.98 -10.15c5.4,2.41 10.15,4.62 14.25,6.61l-5.43 11.02c-5.25,-2.99 -10.18,-5.48 -14.8,-7.48zm0 37.07c3.73,-8.29 7.16,-16.82 10.31,-25.58l10.55 5.12c-4.25,11.96 -7.5,20.57 -9.76,25.82l-11.1 -5.35zm1.73 -58.09l6.22 -9.92c4.57,1.84 9.39,4.15 14.48,6.93l-5.67 10.94c-4.62,-2.68 -9.63,-5.33 -15.03,-7.95zm-65.83 48.01l32.59 0 0 12.44 -73.2 0 0 -12.44 26.68 0 0 -58.88 13.93 0 0 21.41 26.52 0 0 12.36 -26.52 0 0 25.11z"/>
   <path fill="white" d="M878.44 119.33l12.83 -2.28c-1.26,-3.36 -3.1,-7.29 -5.51,-11.81l-12.99 1.57c2.2,4.41 4.09,8.58 5.67,12.52zm27.31 10.78l-44.79 0 0 3.94 44.79 0 0 -3.94zm0.39 8.82l0 4.96c-3.31,2.36 -6.64,4.7 -10,7l23.14 0 0 11.18 -27.08 0 0 5.19c0,4.15 -1,7.27 -2.99,9.37 -1.94,1.84 -5.06,2.89 -9.37,3.15 -4.77,0.21 -8.82,0.21 -12.12,0l-2.52 -11.81c3.04,0.26 6.14,0.39 9.29,0.39 1.89,-0.1 3.18,-0.45 3.86,-1.02 0.68,-0.68 1.02,-1.86 1.02,-3.54l0 -1.73 -31.96 0 0 -11.18 31.96 0 0 -0.55c2.99,-1.99 5.67,-3.91 8.03,-5.75l-26.84 0 0 -5.67 -11.89 0 0 -19.6 9.84 0c-1.62,-3.52 -3.46,-7.11 -5.51,-10.78l13.07 -2.36c2.52,4.2 4.54,7.92 6.06,11.18l-7.01 1.97 27.39 0c2.41,-4.51 4.72,-9.18 6.93,-14.01l13.7 2.75c-0.95,1.78 -3.1,5.54 -6.45,11.26l11.33 0 0 19.6 -11.88 0zm-148.96 -2.28c1.89,6.72 4.59,12.2 8.11,16.45 5.04,6.24 12.62,10.94 22.75,14.09l-9.13 12.6c-9.76,-4.09 -17.4,-10 -22.9,-17.71 -2.31,-3.25 -4.28,-6.9 -5.9,-10.94 -1.37,4.15 -3.23,7.9 -5.59,11.26 -4.62,6.3 -12.3,12.36 -23.06,18.18l-8.82 -11.33c9.13,-4.04 16.03,-8.71 20.7,-14.01 4.51,-5.14 7.4,-11.33 8.66,-18.58l-25.98 0 0 -12.28 27 0c0.32,-5.88 0.42,-12.07 0.32,-18.57l13.69 0c-0.1,4.98 -0.21,9.97 -0.31,14.95 -0.11,1.47 -0.16,2.55 -0.16,3.23l0 0.39 27.94 0 0 12.28 -27.31 0zm-144 -12.59l-9.76 -4.8c-1.57,2.83 -3.23,5.75 -4.96,8.74 -1,0.05 -2.52,0.08 -4.56,0.08 3.83,-5.56 7.58,-11.89 11.25,-18.97l-11.57 -3.78c-2.73,6.66 -5.88,12.93 -9.45,18.81 -1.52,2.57 -3.17,4.33 -4.96,5.27l3.39 9.92c3.04,-0.1 6.06,-0.21 9.05,-0.31 -1.05,1.52 -2.13,3.04 -3.23,4.56 -2.2,2.83 -4.59,4.91 -7.16,6.22l3.62 10.31c8.29,-0.84 16.53,-2 24.72,-3.46l-0.24 -10.55c-3.72,0.84 -7.21,1.34 -10.47,1.5 3.88,-5.3 7.61,-10.84 11.18,-16.61l7.87 6.93c2.94,-3.94 5.14,-7.08 6.61,-9.44l14.4 0c-0.26,13.64 -0.6,24.32 -1.02,32.04 0,2.1 -0.52,3.72 -1.58,4.88 -1,1.05 -2.52,1.58 -4.56,1.58 -2.1,0 -5.48,-0.18 -10.15,-0.55l2.52 12.44c3.31,0.32 6.95,0.34 10.94,0.08 5.14,-0.37 8.87,-1.73 11.18,-4.09 2.31,-2.36 3.57,-6.09 3.78,-11.18 0.47,-10.65 0.95,-26.18 1.42,-46.6l-21.02 0c1.42,-3.36 2.6,-6.35 3.54,-8.97l-12.2 -2.99c-1.47,4.72 -3.2,9.1 -5.2,13.15 -1.15,2.26 -2.28,4.2 -3.38,5.82zm-0.32 18.34l9.21 -5.67c3.2,3.93 6.87,8.95 11.02,15.03l-9.68 6.85c-2.89,-4.98 -6.4,-10.39 -10.55,-16.21zm-33.14 23.22c10.02,-0.94 20.31,-2.41 30.85,-4.41l0.94 10.86c-8.61,2.05 -18.39,3.88 -29.36,5.51l-2.44 -11.96zm-104.8 0.87l-0.47 -5.04c-9.08,1.89 -18.39,3.39 -27.94,4.49l2.76 11.81c7.56,-1.05 15.43,-2.65 23.61,-4.8l0 4.8 48.49 0 0 -11.25 -5.67 0 1.89 -57.46 -41.09 0 0 11.41 8.42 0 -1.26 17 -7.24 0 0 11.25 6.45 0 -1.26 17.79 -6.69 0zm29.6 -29.04c0.1,-3.78 0.32,-9.45 0.63,-17l-8.11 0 -1.26 17 8.74 0zm-0.39 11.25l-9.21 0 -1.26 17.79 9.76 0c0.16,-5.46 0.39,-11.39 0.71,-17.79zm-39.28 -20.54c2.05,-3.57 3.7,-6.51 4.96,-8.82l10 4.88c-3.09,5.14 -5.72,9.37 -7.87,12.67 -2.41,3.62 -4.83,7.24 -7.24,10.86 3.41,-0.42 6.8,-0.87 10.15,-1.34l0.32 10.23c-6.51,1.21 -14.27,2.41 -23.3,3.62l-3.94 -10.63c2.57,-1.26 4.96,-3.36 7.16,-6.3 1.21,-1.63 2.2,-3.07 2.99,-4.33 -2.99,0.21 -5.98,0.39 -8.97,0.55l-3.07 -9.76c1.89,-1.63 3.41,-3.36 4.57,-5.19 3.36,-6.14 6.45,-12.52 9.29,-19.13l11.65 4.02c-3.25,5.72 -7.03,12.04 -11.34,18.97 0.68,-0.05 2.23,-0.16 4.64,-0.32z"/>
   <path fill="white" d="M920.16 85.66l-13.72 0 0 -55.71 13.72 0 0 55.71zm-50.76 -23.27l-6.6 -18.72 -0.15 0 -6.67 18.72 13.42 0zm-13.49 -32.44l14.25 0 21.83 55.71 -14.4 0 -4.17 -11.82 -21.53 0 -4.17 11.82 -13.64 0 21.83 -55.71zm-84.19 0l13.72 0 0 21.3 20.47 0 0 -21.3 13.72 0 0 55.71 -13.72 0 0 -22.28 -20.47 0 0 22.28 -13.72 0 0 -55.71zm-40.61 56.77c-5.31,0 -10.08,-1.29 -14.33,-3.87 -4.24,-2.58 -7.58,-6.06 -10,-10.46 -2.43,-4.4 -3.64,-9.27 -3.64,-14.63 0,-5.51 1.19,-10.41 3.56,-14.71 2.42,-4.45 5.76,-7.91 10,-10.38 4.14,-2.53 8.94,-3.79 14.4,-3.79 4.29,0 8.31,0.78 12.05,2.35 3.79,1.62 6.87,3.84 9.25,6.67l-8.49 8.57c-1.52,-1.67 -3.23,-2.96 -5.15,-3.87 -1.87,-0.86 -4.14,-1.29 -6.82,-1.29 -2.78,0 -5.28,0.71 -7.5,2.12 -2.27,1.36 -4.02,3.31 -5.23,5.84 -1.26,2.48 -1.9,5.31 -1.9,8.49 0,3.23 0.58,6.09 1.74,8.57 1.21,2.53 2.88,4.5 5,5.91 2.22,1.41 4.65,2.12 7.28,2.12 4.6,0 7.98,-1.04 10.16,-3.11l0 -5.31 -11.37 0 0 -11.67 24.71 0 0 22.21c-2.88,3.49 -6.27,6.06 -10.16,7.73 -3.84,1.67 -8.36,2.5 -13.57,2.5zm-92.91 -56.77l13.64 0 21.83 32.9 0.3 0 0 -32.9 12.88 0 0 55.71 -12.96 0 -22.51 -34.03 -0.3 0 0 34.03 -12.88 0 0 -55.71zm-37.05 32.44l-6.59 -18.72 -0.15 0 -6.67 18.72 13.42 0zm-13.49 -32.44l14.25 0 21.83 55.71 -14.4 0 -4.17 -11.82 -21.53 0 -4.17 11.82 -13.64 0 21.83 -55.71zm-84.19 0l13.72 0 0 21.3 20.47 0 0 -21.3 13.72 0 0 55.71 -13.72 0 0 -22.28 -20.47 0 0 22.28 -13.72 0 0 -55.71zm-25.75 16.37c-3.23,-3.84 -7.23,-5.76 -11.98,-5.76 -1.92,0 -3.46,0.38 -4.62,1.14 -1.16,0.71 -1.74,1.79 -1.74,3.26 0,1.41 0.71,2.53 2.12,3.33 1.42,0.81 3.67,1.62 6.75,2.43 6.62,1.72 11.5,4.04 14.63,6.97 3.08,2.93 4.62,6.87 4.62,11.82 0,5.61 -1.97,9.88 -5.91,12.81 -3.99,2.93 -9.3,4.4 -15.92,4.4 -4.04,0 -8.24,-0.94 -12.58,-2.81 -4.3,-1.82 -7.61,-4.24 -9.93,-7.28l8.04 -8.56c2.22,2.38 4.57,4.14 7.05,5.31 2.48,1.11 5.05,1.67 7.73,1.67 2.32,0 4.19,-0.43 5.61,-1.29 1.42,-0.86 2.12,-2.1 2.12,-3.71 0,-1.77 -0.78,-3.13 -2.35,-4.09 -1.57,-1.01 -4.14,-1.97 -7.73,-2.88 -6.32,-1.67 -10.92,-3.87 -13.8,-6.59 -2.83,-2.68 -4.24,-6.32 -4.24,-10.92 0,-3.49 0.86,-6.47 2.58,-8.94 1.62,-2.53 4.02,-4.45 7.2,-5.76 2.93,-1.31 6.49,-1.97 10.69,-1.97 4.04,0 7.86,0.78 11.45,2.35 3.69,1.62 6.64,3.84 8.87,6.67l-8.64 8.41z"/>
   <path fill="white" d="M146.37 30.08l0 33.09c0,7.8 3.65,11.7 10.96,11.7 3.63,0 6.38,-1.02 8.27,-3.06 1.84,-2.14 2.76,-5.02 2.76,-8.64l0 -33.09 12.15 0 0 33.39c0,4.47 -0.94,8.45 -2.83,11.93 -1.89,3.38 -4.55,5.96 -7.98,7.75 -3.58,1.84 -7.7,2.76 -12.37,2.76 -4.72,0 -8.85,-0.92 -12.37,-2.76 -3.53,-1.79 -6.19,-4.37 -7.98,-7.75 -1.84,-3.38 -2.76,-7.36 -2.76,-11.93l0 -33.39 12.15 0zm-59.67 32.79l-19.3 -32.79 14.16 0 11.25 22.29 11.55 -22.29 13.94 0 -19.45 32.79 0 21.99 -12.15 0 0 -21.99zm-81.73 -32.79l12.37 0 22.73 34.81 0.3 0 0 -34.81 11.48 0 0 54.78 -11.85 0 -23.33 -35.7 -0.22 0 0 35.7 -11.48 0 0 -54.78z"/>
   <path fill="white" d="M363.63 101.46c-12.67,1.92 -24.62,-5.14 -28.3,-11.87 5.79,-5.99 17.89,-8.25 26.71,-6.34 12.08,2.62 13.18,5.62 27.48,3.44 -6.16,5.64 -13.98,12.96 -25.89,14.76zm0.76 23.46c-6.52,-7.97 -14.14,-9.51 -27.65,-7.25 3.47,-3.91 7.76,-7.83 14.57,-9.31 24.53,-5.33 27.4,27.09 31.66,36.35 -18.78,-4.22 -10.75,-10.24 -18.57,-19.8zm-6.38 42.34c-7.37,-5.05 -4.04,-7.37 -5.1,-17.7 -1.41,-13.63 -8.07,-24.01 -19.53,-26.77 2.68,-2.3 6.11,-3.05 10.3,-3.38 11.56,-0.92 18.4,3.87 22.63,14.5 3.9,9.8 2.02,21.78 7.18,41.33 -5.2,-1.6 -11.59,-5.32 -15.48,-7.98zm-19.23 5.27c-14.97,-13.52 11.47,-14.2 -7.38,-47.78 9.24,2.55 16.55,9.93 18.46,20.42 3.1,17.05 -2.66,11.95 2.76,34.78 -5.52,-1.13 -10.26,-4.18 -13.84,-7.41zm-10.06 -46.72c4.42,8.16 8.41,13.32 6.04,25.89 -2.06,10.95 -6.57,15.96 -3.43,28.53 -18.96,-15.79 -20.11,-44.7 -2.61,-54.42zm4.23 -20.5l5.33 5.28c-5.33,5.03 -11.85,13.04 -18.66,18.33l-5.19 -4.58 18.52 -19.02zm-25.52 23.85l-18.44 -18.57c1.98,-2.2 2.95,-3.75 5.94,-5.03l17.61 17.79c-1.44,2.83 -2.78,3.8 -5.11,5.81zm-16.97 39.05c-14.72,3.22 -10.86,3.4 -17.34,5.22 6.26,-18.7 5.96,-8.91 19.4,-18 8.85,-5.99 8.88,-15.11 7.68,-28.32 1.09,1.97 6.63,5.33 9.08,13.9 3.65,12.75 -6.53,24.52 -18.82,27.21zm-39.78 -19.66c5.05,-7.35 7.26,-3.96 18.01,-5.05 18.1,-1.83 20.64,-9.06 26.39,-17.91l1.07 -1.38c11.7,43.76 -32.2,31.82 -53.4,40.2 0.87,-4.89 5.6,-12.45 7.93,-15.86zm-5.95 -18.95c4.5,-5.65 6.8,-5.86 14.44,-3.49 16.52,5.11 21.31,1.98 33.81,-3.78 -2.43,9.64 -10.25,16.54 -21.13,18.43 -13.46,2.33 -19.97,-2.28 -33.99,2.65 1.12,-4.84 4.48,-10.81 6.87,-13.8zm47.3 -9.67c-8.24,3.17 -14.01,7.97 -26.22,5.44 -11.65,-2.42 -13.67,-5.72 -27.71,-3.67 14.6,-19.54 45.36,-19.22 53.93,-1.78zm-29.3 -36.36c6.52,8.44 15.62,9.22 27.93,7.24 -6.93,7.73 -19.23,14.72 -31.73,5.56 -10.45,-7.65 -8.69,-19.11 -14.46,-32.42 16.51,3.05 10.61,9.72 18.25,19.61zm11.69 -23.5c2.46,21.27 13.72,21.62 19.46,26.64 -44.3,9.94 -31.24,-25.73 -40.36,-53.44 26.32,8.22 19.98,18.88 20.9,26.81zm14.59 -23.79c4.72,3.93 4.92,6.81 2.55,14.13 -5.51,16.97 -2.01,21.81 4.19,33.39 -9.76,-3.29 -16.1,-8.53 -18.38,-19.76 -3.68,-18.11 3.13,-12.2 -2.88,-35.5 5.48,1.35 11.28,5.05 14.53,7.75zm23.31 48.4l-18.63 18.39c-3.1,-2.04 -3.64,-2.38 -5,-5.87 3.24,-3.45 16.31,-16.64 19.42,-17.78 1.69,1.97 2.34,2.21 4.21,5.26zm-1.48 -30.09c1.91,12.46 -5.84,24.92 -12.14,27.92 -15.05,-15.3 0.86,-35.18 -2.74,-53.98 5.53,3.79 13.45,16.73 14.88,26.05zm8.86 24.96c3.5,1.77 16.02,14.57 18.75,18.25l-5.46 5.24 -18.29 -18.54 5 -4.95zm2.06 -29.89c8.45,-10.1 17.71,-9.11 32.16,-14.7 -4.66,18.72 -7.8,9.71 -19.53,18.32 -8.26,6.06 -9.58,14.53 -7.41,27.6 -7.42,-4.75 -14.71,-19.88 -5.22,-31.22zm51.32 14.97c-25.5,0.58 -30.62,0.21 -41.38,19.71 -3.25,-4.67 -4.08,-14.42 -1.77,-20.55 6.95,-18.39 31.51,-12.59 54.61,-19.49 -1.6,6.8 -8.26,16.28 -11.47,20.33zm16.29 0.76c-1.7,6.07 -4.47,10.6 -7.72,14.18 -4.97,5.47 -7.6,4.72 -15.26,2.35 -14.04,-4.35 -22.76,-2.32 -32.37,4.69 2.81,-9.38 8.98,-15.93 19.12,-18.33 15.26,-3.62 11.72,2.01 36.23,-2.89zm-178.75 140.4l205.79 0 0 -205.79 -205.79 0 0 205.79z"/>
  </g>
 </g>
</svg>
