<?xml version="1.0" encoding="UTF-8" standalone="no"?>
<!-- Created with Inkscape (http://www.inkscape.org/) -->

<svg
   version="1.1"
   id="svg1"
   width="856.98669"
   height="793.66669"
   viewBox="0 0 856.98669 793.66669"
   sodipodi:docname="new_year_element_197_a.eps"
   xmlns:inkscape="http://www.inkscape.org/namespaces/inkscape"
   xmlns:sodipodi="http://sodipodi.sourceforge.net/DTD/sodipodi-0.dtd"
   xmlns="http://www.w3.org/2000/svg"
   xmlns:svg="http://www.w3.org/2000/svg">
  <defs
     id="defs1" />
  <sodipodi:namedview
     id="namedview1"
     pagecolor="#ffffff"
     bordercolor="#000000"
     borderopacity="0.25"
     inkscape:showpageshadow="2"
     inkscape:pageopacity="0.0"
     inkscape:pagecheckerboard="0"
     inkscape:deskcolor="#d1d1d1">
    <inkscape:page
       x="0"
       y="0"
       inkscape:label="1"
       id="page1"
       width="856.98669"
       height="793.66669"
       margin="0"
       bleed="0" />
  </sodipodi:namedview>
  <g
     id="g1"
     inkscape:groupmode="layer"
     inkscape:label="1">
    <g
       id="group-R5">
      <path
         id="path2"
         d="m 3359.81,2054.81 c 14.78,82.27 72.66,148.24 135.26,183.5 59.4,33.47 137.77,33.75 175.69,-10.87 37.93,-44.62 35.14,-122.99 -5.02,-163.15 -40.16,-40.16 -102.04,-46.95 -142.23,-48.53 -42.67,-1.67 -84.58,-7.31 -105.69,-13.38 -40.72,-11.72 -63.88,19.78 -58.01,52.43"
         style="fill:#currentColor;fill-opacity:1;fill-rule:nonzero;stroke:none"
         transform="matrix(0.13333333,0,0,-0.13333333,0,793.66667)" />
      <path
         id="path3"
         d="m 3067.61,2054.81 c -14.78,82.27 -72.67,148.24 -135.26,183.5 -59.4,33.47 -137.77,33.75 -175.7,-10.87 -37.93,-44.62 -35.14,-122.99 5.02,-163.15 40.16,-40.16 102.04,-46.95 142.23,-48.53 42.67,-1.67 84.58,-7.31 105.7,-13.38 40.72,-11.72 63.87,19.78 58.01,52.43"
         style="fill:#currentColor;fill-opacity:1;fill-rule:nonzero;stroke:none"
         transform="matrix(0.13333333,0,0,-0.13333333,0,793.66667)" />
      <path
         id="path4"
         d="m 3888.62,2699.41 c -122.61,0 -222.36,99.76 -222.36,222.36 0,122.61 99.75,222.36 222.36,222.36 122.61,0 222.36,-99.75 222.36,-222.36 0,-122.6 -99.75,-222.36 -222.36,-222.36 z m 389.19,777.56 c -32.39,10.39 -67.01,-7.46 -77.39,-39.81 -25.74,-80.32 -181.47,-158.68 -340.04,-171.12 -0.63,-0.05 -1.24,-0.18 -1.87,-0.24 -176.41,-15.32 -315.31,-163.72 -315.31,-344.03 0,-190.46 154.95,-345.42 345.42,-345.42 190.47,0 345.42,154.96 345.42,345.42 0,112.67 -54.23,212.89 -137.95,275.98 105.52,44.18 193.04,113 221.52,201.85 10.38,32.35 -7.45,67 -39.8,77.37"
         style="fill:#currentColor;fill-opacity:1;fill-rule:nonzero;stroke:none"
         transform="matrix(0.13333333,0,0,-0.13333333,0,793.66667)" />
      <path
         id="path5"
         d="m 3343.88,2253.44 c -8.8,-0.01 -17.69,2.51 -25.56,7.76 -21.21,14.13 -26.94,42.78 -12.8,63.99 65.1,97.64 166.6,160 278.49,171.08 72.47,7.21 136,-8.92 170.11,-43.04 18.02,-18.01 18.02,-47.23 0,-65.25 -18.01,-18.03 -47.25,-18.03 -65.26,0 -9.12,9.12 -43.22,21.68 -95.76,16.44 -39.86,-3.94 -140.2,-24.55 -210.78,-130.43 -8.9,-13.34 -23.53,-20.55 -38.44,-20.55"
         style="fill:#currentColor;fill-opacity:1;fill-rule:nonzero;stroke:none"
         transform="matrix(0.13333333,0,0,-0.13333333,0,793.66667)" />
      <path
         id="path6"
         d="m 3083.54,2253.44 c -14.91,-0.01 -29.54,7.21 -38.44,20.55 -70.58,105.88 -170.93,126.49 -210.79,130.43 -52.57,5.26 -86.63,-7.32 -95.75,-16.44 -18.02,-18.03 -47.24,-18.03 -65.26,0 -18.02,18.02 -18.02,47.24 0,65.25 34.11,34.11 97.69,50.26 170.1,43.04 111.89,-11.08 213.4,-73.44 278.49,-171.08 14.14,-21.2 8.41,-49.85 -12.8,-63.99 -7.86,-5.25 -16.75,-7.76 -25.55,-7.76"
         style="fill:#currentColor;fill-opacity:1;fill-rule:nonzero;stroke:none"
         transform="matrix(0.13333333,0,0,-0.13333333,0,793.66667)" />
      <path
         id="path7"
         d="m 4925.04,4894.99 c -49.93,21.39 -107.73,-1.74 -129.12,-51.65 -59.24,-138.22 -266.45,-361.79 -544.57,-402.3 29.6,36.77 62.82,74.14 99.86,112.56 244.43,253.48 335.3,423.16 335.3,626.07 0,173.65 -59.61,269.04 -143.83,384.83 -31.95,43.92 -93.47,53.63 -137.38,21.69 -43.92,-31.95 -53.64,-93.46 -21.69,-137.39 73.85,-101.53 106.21,-157.67 106.21,-269.13 0,-100.68 -21.64,-221.4 -280.19,-489.54 -94.03,-97.51 -167.9,-192.46 -223.06,-288.53 -4.97,-6.66 -9.03,-14.05 -12.2,-21.94 -95.86,-176.34 -129.36,-357.33 -109.21,-565.51 4.92,-50.84 47.72,-88.88 97.77,-88.88 3.17,0 6.38,0.15 9.59,0.47 54.06,5.23 93.65,53.3 88.42,107.36 -14.59,150.8 3.52,279.75 61.82,405.86 13.41,-0.67 26.77,-1.12 40.01,-1.12 400.14,0 716.85,301.48 813.93,528.01 21.4,49.93 -1.73,107.74 -51.66,129.14"
         style="fill:#currentColor;fill-opacity:1;fill-rule:nonzero;stroke:none"
         transform="matrix(0.13333333,0,0,-0.13333333,0,793.66667)" />
      <path
         id="path8"
         d="m 2453.08,4379.62 c -3.19,7.95 -7.29,15.39 -12.29,22.1 -55.16,96.02 -129.01,190.94 -223,288.41 -258.56,268.14 -280.19,388.87 -280.19,489.54 0,111.46 32.36,167.6 106.2,269.14 31.95,43.93 22.24,105.43 -21.69,137.38 -43.92,31.95 -105.43,22.23 -137.38,-21.69 -84.21,-115.8 -143.83,-211.19 -143.83,-384.83 0,-202.9 90.88,-372.59 335.31,-626.07 37.05,-38.42 70.27,-75.8 99.86,-112.58 -278.04,40.51 -485.33,264.1 -544.56,402.32 -21.4,49.92 -79.22,73.05 -129.14,51.65 -49.92,-21.4 -73.05,-79.21 -51.66,-129.14 97.1,-226.54 413.76,-528.01 813.93,-528.01 13.24,0 26.6,0.45 40.02,1.12 58.3,-126.11 76.42,-255.06 61.82,-405.86 -5.23,-54.06 34.35,-102.13 88.42,-107.36 3.22,-0.32 6.42,-0.47 9.58,-0.47 50.05,0 92.86,38.04 97.78,88.88 20.14,208.16 -13.34,389.14 -109.18,565.47"
         style="fill:#currentColor;fill-opacity:1;fill-rule:nonzero;stroke:none"
         transform="matrix(0.13333333,0,0,-0.13333333,0,793.66667)" />
      <path
         id="path9"
         d="m 3397.18,3756.85 c -36.17,0 -70.12,22.33 -83.19,58.28 -16.71,45.95 6.99,96.73 52.92,113.43 86.67,31.52 171.33,164.35 164.41,216.21 -6.46,48.45 27.59,92.97 76.04,99.43 48.43,6.43 92.98,-27.59 99.44,-76.04 18.8,-141.08 -124.8,-349.75 -279.39,-405.96 -9.98,-3.63 -20.19,-5.35 -30.23,-5.35"
         style="fill:#currentColor;fill-opacity:1;fill-rule:nonzero;stroke:none"
         transform="matrix(0.13333333,0,0,-0.13333333,0,793.66667)" />
      <path
         id="path10"
         d="m 3213.71,3159.55 c -21.52,0 -41.34,11.72 -51.71,30.58 -77.79,141.5 -291.57,286.74 -515.95,286.74 -1.6,0 -3.19,0 -4.79,-0.02 -32.36,0 -58.72,26.09 -58.99,58.52 -0.27,32.59 25.93,59.22 58.52,59.49 238.22,1.84 455.83,-128.11 572.92,-271.96 116.2,142.77 331.07,271.98 567.57,271.98 1.79,0 3.55,-0.01 5.35,-0.02 32.59,-0.27 58.79,-26.9 58.52,-59.49 -0.27,-32.59 -27.29,-58.45 -59.5,-58.52 -225.65,1.87 -441.95,-144.32 -520.23,-286.72 -10.37,-18.86 -30.19,-30.58 -51.71,-30.58"
         style="fill:#currentColor;fill-opacity:1;fill-rule:nonzero;stroke:none"
         transform="matrix(0.13333333,0,0,-0.13333333,0,793.66667)" />
      <path
         id="path11"
         d="m 3040.22,2580.05 c -14.3,0 -28.08,7.81 -35.05,21.41 -9.9,19.34 -2.26,43.04 17.08,52.95 54.26,27.8 116.88,41.31 191.46,41.31 74.56,0 137.19,-13.51 191.46,-41.31 19.34,-9.91 26.98,-33.61 17.07,-52.95 -9.9,-19.34 -33.59,-26.98 -52.94,-17.08 -42.9,21.98 -93.8,32.66 -155.59,32.66 -61.8,0 -112.7,-10.68 -155.59,-32.66 -5.74,-2.94 -11.87,-4.33 -17.9,-4.33"
         style="fill:#currentColor;fill-opacity:1;fill-rule:nonzero;stroke:none"
         transform="matrix(0.13333333,0,0,-0.13333333,0,793.66667)" />
      <path
         id="path12"
         d="m 3387.2,2848.11 c -6.04,0 -12.16,1.39 -17.9,4.33 -42.89,21.97 -93.79,32.66 -155.59,32.66 -61.81,0 -112.71,-10.69 -155.58,-32.66 -19.33,-9.9 -43.05,-2.27 -52.96,17.08 -9.9,19.33 -2.26,43.04 17.07,52.94 54.25,27.8 116.88,41.31 191.47,41.31 74.57,0 137.2,-13.51 191.46,-41.31 19.34,-9.9 26.98,-33.6 17.07,-52.94 -6.96,-13.59 -20.75,-21.41 -35.04,-21.41"
         style="fill:#currentColor;fill-opacity:1;fill-rule:nonzero;stroke:none"
         transform="matrix(0.13333333,0,0,-0.13333333,0,793.66667)" />
      <path
         id="path13"
         d="m 3213.71,393.512 c -25.24,0 -47.99,15.207 -57.63,38.527 -28.01,67.793 -106.35,132.953 -150.82,138.731 -85.48,11.121 -157.05,27.519 -232.82,44.902 l -8.21,1.879 c -97.72,22.41 -213.16,-15.899 -274.41,-91.071 -12.46,-15.3 -31.43,-23.8 -51.14,-22.898 -19.71,0.879 -37.83,11.039 -48.87,27.398 -66.18,98 -64.88,176.489 -55.33,285.059 2.9,32.973 -10.49,66.453 -38.71,96.852 -44,47.379 -99.6,97.569 -158.47,150.709 -27.4,24.72 -55.74,50.3 -84.92,77.37 -25.25,23.41 -26.74,62.86 -3.33,88.11 23.41,25.26 62.87,26.76 88.12,3.32 28.58,-26.5 56.59,-51.78 83.69,-76.24 60.96,-55.03 118.55,-107.01 166.29,-158.418 52.13,-56.14 77.54,-124.551 71.56,-192.621 -5.43,-61.711 -6.35,-101.441 2.27,-136.019 92.75,67.5 218.18,95.859 331.11,70.007 l 8.22,-1.879 c 75.92,-17.421 141.49,-32.449 221.03,-42.8 64.95,-8.438 138.59,-57.078 192.37,-121.391 53.77,64.313 127.41,112.953 192.36,121.391 79.55,10.351 145.11,25.379 221.03,42.8 l 8.22,1.879 c 112.97,25.883 238.36,-2.519 331.11,-70.007 8.63,34.578 7.7,74.308 2.29,136.019 -5.99,68.078 19.42,136.488 71.55,192.621 47.73,51.408 105.31,103.378 166.27,158.408 27.1,24.46 55.12,49.75 83.69,76.25 25.27,23.44 64.7,21.94 88.12,-3.31 23.42,-25.26 21.93,-64.71 -3.31,-88.12 -29.21,-27.08 -57.54,-52.66 -84.94,-77.39 -58.86,-53.13 -114.46,-103.318 -158.45,-150.689 -28.23,-30.399 -41.61,-63.879 -38.71,-96.84 9.54,-108.582 10.84,-187.082 -55.33,-285.071 -11.05,-16.359 -29.18,-26.519 -48.88,-27.398 -19.66,-0.891 -38.67,7.609 -51.14,22.898 -61.25,75.18 -176.66,113.481 -274.41,91.071 l -8.2,-1.879 c -75.78,-17.383 -147.34,-33.781 -232.83,-44.902 -44.47,-5.778 -122.8,-70.938 -150.81,-138.731 -9.65,-23.32 -32.39,-38.527 -57.63,-38.527"
         style="fill:#currentColor;fill-opacity:1;fill-rule:nonzero;stroke:none"
         transform="matrix(0.13333333,0,0,-0.13333333,0,793.66667)" />
      <path
         id="path14"
         d="m 4555.36,2394.61 c -11.96,0 -24.09,2.99 -35.25,9.3 -34.51,19.5 -46.68,63.29 -27.17,97.81 15.59,27.59 19.08,55.11 10.64,84.14 -14.94,51.47 -66.7,105.12 -138.46,143.51 -22.24,11.9 -36.6,34.59 -37.83,59.78 -1.24,25.19 10.83,49.17 31.79,63.19 111.82,74.76 163.13,137.59 211.19,258.61 38.21,96.22 26.27,277.44 -95.51,367.42 -31.89,23.56 -38.64,68.5 -15.08,100.39 23.55,31.88 68.5,38.65 100.38,15.07 172.5,-127.43 208.49,-372.53 143.64,-535.86 -44.84,-112.94 -97.68,-191.13 -181.01,-262.21 59.2,-49.41 100.92,-108.39 118.77,-169.88 19.22,-66.18 11.08,-133.55 -23.54,-194.8 -13.2,-23.35 -37.52,-36.47 -62.56,-36.47"
         style="fill:#currentColor;fill-opacity:1;fill-rule:nonzero;stroke:none"
         transform="matrix(0.13333333,0,0,-0.13333333,0,793.66667)" />
      <path
         id="path15"
         d="m 2538.79,2699.41 c -122.61,0 -222.35,99.76 -222.35,222.36 0,122.61 99.74,222.36 222.35,222.36 122.61,0 222.36,-99.75 222.36,-222.36 0,-122.6 -99.75,-222.36 -222.36,-222.36 z m 30.14,566.39 c -0.63,0.06 -1.25,0.19 -1.89,0.24 -158.58,12.44 -314.3,90.8 -340.05,171.13 -10.38,32.35 -45.02,50.19 -77.38,39.8 -32.36,-10.38 -50.18,-45.02 -39.8,-77.38 28.48,-88.84 116,-157.66 221.52,-201.84 -83.72,-63.09 -137.95,-163.31 -137.95,-275.98 0,-190.46 154.95,-345.42 345.41,-345.42 190.46,0 345.42,154.96 345.42,345.42 0,180.3 -138.89,328.7 -315.28,344.03"
         style="fill:#currentColor;fill-opacity:1;fill-rule:nonzero;stroke:none"
         transform="matrix(0.13333333,0,0,-0.13333333,0,793.66667)" />
      <path
         id="path16"
         d="m 1872.05,2394.61 c -25.04,0 -49.36,13.12 -62.56,36.47 -34.62,61.26 -42.75,128.62 -23.53,194.81 17.85,61.49 59.57,120.47 118.76,169.87 -83.33,71.08 -136.16,149.27 -181,262.2 -64.86,163.34 -28.86,408.43 143.63,535.87 31.88,23.57 76.83,16.81 100.39,-15.07 23.56,-31.89 16.81,-76.83 -15.08,-100.39 -121.78,-89.98 -133.72,-271.2 -95.51,-367.43 48.05,-121 99.36,-183.84 211.18,-258.6 20.97,-14.02 33.04,-38 31.8,-63.19 -1.24,-25.2 -15.6,-47.89 -37.83,-59.78 -71.76,-38.39 -123.53,-92.04 -138.47,-143.51 -8.43,-29.03 -4.94,-56.55 10.65,-84.14 19.5,-34.52 7.34,-78.31 -27.18,-97.81 -11.15,-6.31 -23.28,-9.3 -35.25,-9.3"
         style="fill:#currentColor;fill-opacity:1;fill-rule:nonzero;stroke:none"
         transform="matrix(0.13333333,0,0,-0.13333333,0,793.66667)" />
      <path
         id="path17"
         d="m 2445.34,2954.41 c 0,-72.09 58.44,-130.53 130.53,-130.53 72.08,0 130.52,58.44 130.52,130.53 0,72.08 -58.44,130.52 -130.52,130.52 -72.09,0 -130.53,-58.44 -130.53,-130.52"
         style="fill:#currentColor;fill-opacity:1;fill-rule:nonzero;stroke:none"
         transform="matrix(0.13333333,0,0,-0.13333333,0,793.66667)" />
      <path
         id="path18"
         d="m 3645.07,1114.89 c 21.85,64.75 41.69,132.68 51.09,166.84 18.52,-34.47 33.24,-74.1 43.98,-118.31 -0.64,-0.43 -1.25,-0.86 -1.89,-1.29 -29.4,-19.6 -60.74,-34.94 -93.18,-47.24 z m -957.79,48.53 c 10.68,43.92 25.35,83.43 44,118.21 9.42,-34.19 29.25,-102.04 51.09,-166.74 -32.46,12.29 -63.8,27.64 -93.21,47.24 -0.64,0.43 -1.24,0.86 -1.88,1.29 z m 1612.14,612.3 c -0.6,0.01 -1.2,0.02 -1.81,0.02 -35.99,0 -65.63,-28.69 -66.6,-64.88 -2.85,-107.14 -26.72,-185.19 -75.12,-245.64 -33.18,-41.44 -66.84,-73.04 -140.71,-111.94 -58.11,-30.63 -110.89,-70.11 -166.77,-111.92 -3.56,-2.67 -7.19,-5.37 -10.78,-8.05 -12.4,39.71 -27.78,76.36 -46.26,109.4 -22.22,39.72 -64.93,61.92 -108.78,56.54 -45.45,-5.54 -81.67,-38.14 -94.5,-85.06 -14.23,-52 -47.5,-162.99 -75.06,-232.9 -87.71,-13.43 -177,-13.04 -256.16,-12.55 -29.5,0.16 -56.84,0.16 -86.33,0 -79.16,-0.48 -168.46,-0.87 -256.16,12.56 -27.57,69.93 -60.84,180.9 -75.06,232.89 -12.83,46.92 -49.04,79.52 -94.5,85.06 -43.9,5.36 -86.56,-16.83 -108.77,-56.54 -18.49,-33.03 -33.87,-69.69 -46.27,-109.39 -3.58,2.68 -7.22,5.38 -10.78,8.05 -55.88,41.8 -108.66,81.28 -166.78,111.91 -73.86,38.9 -107.52,70.51 -140.7,111.94 -48.4,60.46 -72.27,138.51 -75.12,245.64 -0.98,36.8 -31.84,65.43 -68.4,64.86 -36.8,-0.98 -65.84,-31.61 -64.86,-68.41 3.6,-135.8 37.73,-242.24 104.32,-325.41 43.06,-53.78 88.63,-97.05 182.63,-146.57 48.81,-25.72 97.5,-62.14 149.05,-100.71 36.34,-27.19 73.92,-55.31 116.07,-83.41 177.09,-118.058 387.26,-116.858 556.13,-115.788 28.96,0.18 55.8,0.18 84.73,0 15.88,-0.102 32.09,-0.192 48.63,-0.192 159.45,0 347.07,9.02 507.5,115.98 42.15,28.1 79.74,56.21 116.07,83.4 51.55,38.57 100.24,75 149.05,100.72 94,49.51 139.57,92.78 182.64,146.57 66.58,83.15 100.71,189.59 104.32,325.41 0.97,36.8 -28.06,67.43 -64.86,68.41"
         style="fill:#currentColor;fill-opacity:1;fill-rule:nonzero;stroke:none"
         transform="matrix(0.13333333,0,0,-0.13333333,0,793.66667)" />
      <path
         id="path19"
         d="m 3845.97,1601.72 c -26.86,-24.42 -44.7,-24.13 -46.82,-23.29 -0.8,0.81 -3.2,5.28 -3.65,14.99 l -0.81,17.52 c -1.59,34.93 -3.84,84.34 -6.65,130.04 12.08,-0.43 24.15,-0.72 36.18,-0.72 39.9,0 79.39,2.43 117.77,7.11 -25.84,-58.23 -62.03,-114.75 -96.02,-145.65 z m -1213.21,10.12 -0.85,-18.42 c -0.45,-9.71 -2.85,-14.18 -3.32,-14.77 -2.42,-1.06 -20.27,-1.36 -47.15,23.07 -33.97,30.88 -70.15,87.37 -95.99,145.58 49.93,-6.09 101.81,-8.23 153.92,-6.37 -2.79,-45.38 -5.03,-94.4 -6.61,-129.09 z m 2801.84,874.47 c -29.52,36.96 -61.01,74.46 -91.46,110.72 -135.54,161.44 -275.68,328.36 -319.06,530.74 -63.23,295.07 91.75,576.78 404.47,735.19 40.42,20.48 56.59,69.85 36.12,110.26 -20.48,40.42 -69.85,56.61 -110.26,36.12 -190.64,-96.57 -336.67,-235.56 -422.3,-401.94 -82.49,-160.31 -106.18,-338.06 -68.46,-514.02 51.92,-242.25 212.31,-433.3 353.83,-601.85 31.19,-37.14 60.65,-72.23 88.92,-107.63 163.68,-204.89 190.28,-430.96 66.19,-562.53 -119.7,-126.94 -272.97,-151.28 -455.63,-72.35 -185.22,80.05 -273.36,190.07 -366.68,306.56 -16.73,20.87 -33.8,42.07 -51.44,63.1 18.97,28.92 37.44,58.76 55.93,89.32 19.05,31.49 8.96,72.47 -22.54,91.53 -31.47,19.06 -72.47,8.97 -91.53,-22.53 -12.1,-20 -24.06,-39.48 -36.07,-58.44 -177.72,157.99 -368.69,129.22 -549.39,72.99 -43.26,-13.46 -67.43,-59.44 -53.97,-102.7 13.46,-43.26 59.44,-67.43 102.7,-53.97 195.3,60.74 302.56,47.5 404.29,-50.76 -63.45,-75 -137.81,-134.45 -241.7,-172.16 -116.18,-42.18 -270.09,-50.32 -411.68,-21.79 -133.27,26.85 -294.07,42.25 -441.17,42.25 -147.1,0 -307.9,-15.4 -441.17,-42.25 -141.59,-28.52 -295.5,-20.37 -411.69,21.79 -103.89,37.71 -178.24,97.16 -241.69,172.16 101.74,98.26 209.04,111.49 404.28,50.76 43.27,-13.46 89.24,10.71 102.7,53.97 13.46,43.26 -10.7,89.24 -53.96,102.7 -180.7,56.21 -371.68,85 -549.39,-72.99 -12.01,18.96 -23.97,38.44 -36.07,58.44 -19.05,31.48 -60.04,41.6 -91.54,22.53 -31.5,-19.06 -41.58,-60.04 -22.53,-91.53 18.49,-30.56 36.96,-60.4 55.92,-89.32 -17.64,-21.03 -34.71,-42.22 -51.44,-63.1 -93.31,-116.49 -181.46,-226.51 -366.68,-306.56 -182.63,-78.93 -335.93,-54.59 -455.63,72.35 -124.086,131.58 -97.48,357.64 66.19,562.53 28.28,35.4 57.74,70.5 88.93,107.65 141.52,168.54 301.9,359.59 353.82,601.83 37.72,175.96 14.04,353.71 -68.46,514.02 -85.63,166.38 -231.65,305.37 -422.29,401.94 -40.45,20.47 -89.791,4.3 -110.264,-36.12 -20.476,-40.41 -4.308,-89.78 36.113,-110.26 312.731,-158.41 467.721,-440.12 404.471,-735.19 -43.37,-202.37 -183.52,-369.29 -319.05,-530.72 -30.45,-36.27 -61.94,-73.77 -91.467,-110.74 -216.864,-271.48 -239.918,-583.95 -57.368,-777.51 105.605,-111.98 235.165,-168.88 378.165,-168.87 83.43,0 171.45,19.37 261.94,58.47 222.67,96.24 332.62,233.49 429.63,354.59 8.27,10.31 16.41,20.46 24.54,30.49 73.41,-83.4 162.12,-152.01 285.65,-196.84 12.88,-4.67 26.23,-8.88 39.79,-12.86 29.06,-96.11 89.1,-199.82 150.42,-255.54 38.02,-34.55 80.51,-52.79 120.16,-52.79 15.98,0 31.5,2.96 46.08,9.01 43.08,17.88 70.29,60.39 72.78,113.7 l 0.85,18.55 c 1.66,36.54 4.34,95.28 7.65,144.85 15.35,2.31 30.64,4.87 45.76,7.92 125,25.18 276.2,39.62 414.85,39.62 138.65,0 289.85,-14.44 414.84,-39.62 15.14,-3.05 30.41,-5.7 45.77,-8.02 3.33,-49.84 6.01,-108.91 7.68,-145.65 l 0.81,-17.65 c 2.5,-53.32 29.71,-95.83 72.8,-113.7 14.58,-6.05 30.08,-9.01 46.06,-9.01 39.65,0 82.15,18.25 120.17,52.79 61.32,55.73 121.36,159.44 150.42,255.55 13.56,3.97 26.91,8.18 39.79,12.85 123.52,44.83 212.23,113.44 285.65,196.84 8.12,-10.03 16.26,-20.18 24.52,-30.49 97.03,-121.1 206.98,-258.35 429.65,-354.59 90.49,-39.1 178.49,-58.47 261.93,-58.47 142.99,0.01 272.57,56.9 378.17,168.86 182.55,193.57 159.5,506.04 -57.37,777.52"
         style="fill:#currentColor;fill-opacity:1;fill-rule:nonzero;stroke:none"
         transform="matrix(0.13333333,0,0,-0.13333333,0,793.66667)" />
      <path
         id="path20"
         d="m 3030.24,3756.85 c -10.05,0 -20.25,1.72 -30.24,5.35 -154.59,56.21 -298.19,264.89 -279.38,405.97 6.46,48.45 50.89,82.54 99.44,76.03 48.45,-6.46 82.5,-50.98 76.03,-99.43 -6.91,-51.87 77.74,-184.69 164.4,-216.21 45.95,-16.7 69.65,-67.48 52.94,-113.43 -13.08,-35.95 -47.03,-58.28 -83.19,-58.28"
         style="fill:#currentColor;fill-opacity:1;fill-rule:nonzero;stroke:none"
         transform="matrix(0.13333333,0,0,-0.13333333,0,793.66667)" />
      <path
         id="path21"
         d="m 4253.8,3568.48 c -15.76,0 -31.69,4.53 -45.75,13.99 -37.58,25.3 -47.53,76.29 -22.24,113.87 108.65,161.4 295.52,276.05 499.89,306.7 44.83,6.72 86.57,-24.15 93.29,-68.96 6.72,-44.81 -24.15,-86.58 -68.96,-93.3 -157.26,-23.59 -305.96,-114.04 -388.1,-236.06 -15.84,-23.53 -41.75,-36.24 -68.13,-36.24"
         style="fill:#currentColor;fill-opacity:1;fill-rule:nonzero;stroke:none"
         transform="matrix(0.13333333,0,0,-0.13333333,0,793.66667)" />
      <path
         id="path22"
         d="m 2173.62,3568.48 c -26.39,0 -52.29,12.71 -68.14,36.24 -82.13,122.02 -230.84,212.47 -388.1,236.06 -44.81,6.72 -75.68,48.49 -68.96,93.3 6.72,44.81 48.48,75.64 93.3,68.96 204.37,-30.65 391.24,-145.31 499.88,-306.7 25.3,-37.59 15.34,-88.57 -22.25,-113.87 -14.05,-9.46 -29.98,-13.99 -45.73,-13.99"
         style="fill:#currentColor;fill-opacity:1;fill-rule:nonzero;stroke:none"
         transform="matrix(0.13333333,0,0,-0.13333333,0,793.66667)" />
      <path
         id="path23"
         d="m 3982.07,2954.41 c 0,-72.09 -58.43,-130.53 -130.52,-130.53 -72.09,0 -130.53,58.44 -130.53,130.53 0,72.08 58.44,130.52 130.53,130.52 72.09,0 130.52,-58.44 130.52,-130.52"
         style="fill:#currentColor;fill-opacity:1;fill-rule:nonzero;stroke:none"
         transform="matrix(0.13333333,0,0,-0.13333333,0,793.66667)" />
    </g>
  </g>
</svg>
