<?xml version="1.0" encoding="UTF-8"?>
<svg version="1.1" xmlns="http://www.w3.org/2000/svg" width="435" height="73">
<path d="M0 0 C23.1 0 46.2 0 70 0 C70.99 4.455 70.99 4.455 72 9 C72.33 6.03 72.66 3.06 73 0 C75.64590014 -0.02684679 78.29153096 -0.04676357 80.9375 -0.0625 C81.69224609 -0.07087891 82.44699219 -0.07925781 83.22460938 -0.08789062 C85.14994313 -0.09652441 87.07535581 -0.05224333 89 0 C90 1 90 1 90.12025452 3.47401428 C90.11803391 4.57321701 90.11581329 5.67241974 90.11352539 6.80493164 C90.11341209 8.66674828 90.11341209 8.66674828 90.11329651 10.56617737 C90.10818911 11.9308374 90.1029731 13.29549702 90.09765625 14.66015625 C90.095792 16.04878183 90.09436813 17.43740807 90.09336853 18.82603455 C90.08954387 22.48721115 90.07971403 26.1483483 90.06866455 29.80950928 C90.05844932 33.54292263 90.05387067 37.27634234 90.04882812 41.00976562 C90.03809171 48.33986177 90.02101591 55.66992536 90 63 C90.08547592 62.26972595 90.17095184 61.5394519 90.25901794 60.78704834 C91.06549359 53.90083001 91.87447004 47.01490959 92.68624783 40.12931442 C93.10348978 36.58946217 93.51976814 33.04950217 93.93383789 29.50927734 C94.41004749 25.43813474 94.89045947 21.36749762 95.37109375 17.296875 C95.51904892 16.02696716 95.66700409 14.75705933 95.81944275 13.44866943 C95.95951248 12.26774719 96.09958221 11.08682495 96.24389648 9.87011719 C96.36603012 8.83087097 96.48816376 7.79162476 96.61399841 6.72088623 C97 4 97 4 98 0 C106.25 0 114.5 0 123 0 C124.25761227 7.54567362 125.43411751 14.99286699 126.2890625 22.578125 C126.38533936 23.41134277 126.48161621 24.24456055 126.58081055 25.10302734 C126.93218811 28.15163804 127.27830734 31.20085298 127.625 34.25 C128.800625 44.52125 128.800625 44.52125 130 55 C130.33 36.85 130.66 18.7 131 0 C137.27 0 143.54 0 150 0 C150 18.15 150 36.3 150 55 C152.97 55 155.94 55 159 55 C159 52.03 159 49.06 159 46 C166.92 45.505 166.92 45.505 175 45 C172.64875 42.9271875 172.64875 42.9271875 170.25 40.8125 C163.4702446 34.83561037 159.58072155 29.92026511 158.8125 20.765625 C158.63126769 14.19595372 159.10752232 8.28067823 163.4375 3.0625 C168.20924526 -0.77817301 172.96753044 -0.2165763 178.8125 -0.25 C179.70259766 -0.270625 180.59269531 -0.29125 181.50976562 -0.3125 C186.70639581 -0.34331767 190.65080487 -0.17031681 195 3 C198.41632372 7.82725825 198.37503702 12.20080291 198.1875 17.875 C198.17396484 18.65875 198.16042969 19.4425 198.14648438 20.25 C198.11141789 22.16696782 198.05762072 24.08357751 198 26 C192.72 26.33 187.44 26.66 182 27 C183.5675 28.216875 185.135 29.43375 186.75 30.6875 C192.34921476 35.03425883 196.33063872 38.94970262 198 46 C198.28769792 49.00626568 198.32495226 51.98157266 198.3125 55 C198.32861328 55.78117187 198.34472656 56.56234375 198.36132812 57.3671875 C198.36548761 62.30865569 197.79590294 65.75881089 195 70 C190.3169185 74.32821445 185.18295659 73.51440656 179.125 73.5 C178.04863281 73.52835937 176.97226562 73.55671875 175.86328125 73.5859375 C167.01741403 73.60775222 167.01741403 73.60775222 163.2421875 70.46875 C162.50226563 69.6540625 161.76234375 68.839375 161 68 C160.67 69.65 160.34 71.3 160 73 C144.49 73 128.98 73 113 73 C112.505 69.04 112.505 69.04 112 65 C110.35 65 108.7 65 107 65 C106.67 67.64 106.34 70.28 106 73 C93.79 73 81.58 73 69 73 C68.01 67.72 67.02 62.44 66 57 C65.67 62.28 65.34 67.56 65 73 C53.45 73 41.9 73 30 73 C30 54.85 30 36.7 30 18 C26.37 18 22.74 18 19 18 C19.33 20.97 19.66 23.94 20 27 C21.4540625 26.9690625 21.4540625 26.9690625 22.9375 26.9375 C26 27 26 27 27 28 C27.07325168 30.86267567 27.09238205 33.700719 27.0625 36.5625 C27.05798828 37.36880859 27.05347656 38.17511719 27.04882812 39.00585938 C27.03700518 41.00393756 27.01906914 43.00197783 27 45 C24.36 45 21.72 45 19 45 C19 54.24 19 63.48 19 73 C12.73 73 6.46 73 0 73 C0 48.91 0 24.82 0 0 Z M178 18 C178.33 20.31 178.66 22.62 179 25 C179.33 25 179.66 25 180 25 C180 22.69 180 20.38 180 18 C179.34 18 178.68 18 178 18 Z M109 30 C108.67 36.27 108.34 42.54 108 49 C108.99 49 109.98 49 111 49 C110.67 42.73 110.34 36.46 110 30 C109.67 30 109.34 30 109 30 Z M177 47 C177 49.97 177 52.94 177 56 C177.66 56 178.32 56 179 56 C179.16677282 52.58343976 179.16677282 52.58343976 179 49 C178.34 48.34 177.68 47.68 177 47 Z M131 66 C131 67.98 131 69.96 131 72 C131.33 72 131.66 72 132 72 C132 70.02 132 68.04 132 66 C131.67 66 131.34 66 131 66 Z " fill="#E5E6E8" transform="translate(111,0)"/>
<path d="M0 0 C17.16 0 34.32 0 52 0 C52 8.91 52 17.82 52 27 C52.66 27 53.32 27 54 27 C54 18.09 54 9.18 54 0 C70.5 0 87 0 104 0 C104 5.94 104 11.88 104 18 C100.04 18 96.08 18 92 18 C92 20.97 92 23.94 92 27 C94.97 27 97.94 27 101 27 C101 32.61 101 38.22 101 44 C98.03 44 95.06 44 92 44 C92 47.63 92 51.26 92 55 C95.96 55 99.92 55 104 55 C104 60.94 104 66.88 104 73 C87.5 73 71 73 54 73 C54 63.43 54 53.86 54 44 C53.34 44 52.68 44 52 44 C52 53.57 52 63.14 52 73 C45.73 73 39.46 73 33 73 C33 54.85 33 36.7 33 18 C30.69 18 28.38 18 26 18 C26 36.15 26 54.3 26 73 C19.73 73 13.46 73 7 73 C7 54.85 7 36.7 7 18 C4.69 18 2.38 18 0 18 C0 12.06 0 6.12 0 0 Z " fill="#E5E6E8" transform="translate(0,0)"/>
<path d="M0 0 C6.39239043 4.40364674 10.55000286 11.25790323 14.8125 17.625 C15.95473721 19.31317159 17.09800117 21.00064884 18.2421875 22.6875 C18.82838867 23.55246094 19.41458984 24.41742187 20.01855469 25.30859375 C22.95251182 29.60811068 25.94469109 33.86633552 28.9375 38.125 C33.26934823 44.29921813 37.59233204 50.47903391 41.875 56.6875 C42.30377441 57.3064917 42.73254883 57.9254834 43.17431641 58.56323242 C46.18651552 62.94109668 49.02737072 67.41212677 51.8125 71.9375 C27.35342897 74.43405843 27.35342897 74.43405843 20.60107422 70.72167969 C17.04856289 67.30592573 15.14494607 62.95243631 13.11767578 58.5234375 C10.56310775 53.4620861 7.13158009 48.93970242 3.875 44.3125 C2.03333793 41.62297841 0.20174432 38.92684595 -1.62841797 36.22949219 C-2.58417326 34.8244451 -3.54546218 33.42311848 -4.51611328 32.02832031 C-7.1875 28.15310992 -7.1875 28.15310992 -7.1875 25.9375 C-7.8475 25.9375 -8.5075 25.9375 -9.1875 25.9375 C-8.62648138 30.19269175 -7.18457397 32.82375873 -4.75 36.33203125 C-3.6671875 37.90911865 -3.6671875 37.90911865 -2.5625 39.51806641 C-2.17578125 40.07415588 -1.7890625 40.63024536 -1.390625 41.20318604 C0.25442781 43.57454235 1.87383305 45.96299238 3.49487305 48.35079956 C4.75104804 50.20076219 6.00980016 52.04894172 7.26953125 53.89648438 C7.89529053 54.81433716 7.89529053 54.81433716 8.53369141 55.75073242 C9.3999491 57.02035066 10.26683011 58.2895438 11.13427734 59.55834961 C12.40409709 61.41639815 13.67104146 63.27637818 14.9375 65.13671875 C15.32800537 65.70637863 15.71851074 66.27603851 16.12084961 66.86296082 C18.8125 70.82387176 18.8125 70.82387176 18.8125 71.9375 C-5.73549577 75.29031311 -5.73549577 75.29031311 -12.90283203 69.89257812 C-17.30749273 64.82764707 -20.40195134 59.08549974 -23.13549805 52.97875977 C-24.01590028 50.77739157 -24.01590028 50.77739157 -26.1875 49.9375 C-26.39246094 50.59234375 -26.59742188 51.2471875 -26.80859375 51.921875 C-28.72884661 56.12140817 -31.44467152 59.53893243 -34.25 63.1875 C-34.80494141 63.9196875 -35.35988281 64.651875 -35.93164062 65.40625 C-39.97448118 70.72448118 -39.97448118 70.72448118 -41.1875 71.9375 C-43.18714982 72.02508003 -45.1898611 72.04446576 -47.19140625 72.03515625 C-49.01381836 72.03032227 -49.01381836 72.03032227 -50.87304688 72.02539062 C-52.15244141 72.01701172 -53.43183594 72.00863281 -54.75 72 C-56.03326172 71.99548828 -57.31652344 71.99097656 -58.63867188 71.98632812 C-61.82166022 71.97449545 -65.00455762 71.95801068 -68.1875 71.9375 C-66.80988792 69.02898134 -65.23552065 66.43703356 -63.38671875 63.8046875 C-62.82831299 63.00772461 -62.26990723 62.21076172 -61.69458008 61.38964844 C-61.09411865 60.53918945 -60.49365723 59.68873047 -59.875 58.8125 C-59.25197998 57.92594727 -58.62895996 57.03939453 -57.98706055 56.12597656 C-53.34205189 49.53200092 -48.62841231 42.98953979 -43.88476562 36.46630859 C-40.29382146 31.5139263 -36.8121121 26.49754293 -33.375 21.4375 C-15.28208069 -5.0940269 -15.28208069 -5.0940269 0 0 Z " fill="#E5E6E8" transform="translate(383.1875,1.0625)"/>
</svg>
